<svg width="8" height="16" viewBox="0 0 8 16" fill="none" xmlns="http://www.w3.org/2000/svg">
<path d="M0.00415633 8.44254C0.00303389 8.63901 0.036537 8.83378 0.102744 9.01567C0.16895 9.19756 0.266558 9.36299 0.389972 9.50249L5.71635 15.474C5.84051 15.6132 5.98793 15.7236 6.15021 15.799C6.31249 15.8743 6.48644 15.9131 6.66213 15.9131C6.83782 15.9131 7.01181 15.8743 7.17417 15.799C7.33653 15.7236 7.48408 15.6132 7.60839 15.474C7.7327 15.3348 7.83134 15.1696 7.89867 14.9877C7.96601 14.8059 8.00072 14.6109 8.00083 14.4141C8.00094 14.2172 7.96644 14.0223 7.89931 13.8404C7.83217 13.6586 7.73372 13.4933 7.60956 13.3541L3.20197 8.44254L7.44179 3.516C7.57816 3.37867 7.68779 3.21131 7.76382 3.02438C7.83985 2.83745 7.88065 2.63498 7.88367 2.42963C7.88669 2.22428 7.85186 2.02046 7.78136 1.83093C7.71086 1.6414 7.6062 1.47023 7.47394 1.32813C7.34167 1.18603 7.18465 1.07605 7.01268 1.00507C6.84071 0.934096 6.6575 0.903649 6.4745 0.915635C6.29151 0.92762 6.11266 0.98178 5.94915 1.07473C5.78565 1.16768 5.64099 1.29741 5.52424 1.45582L0.377795 7.42737C0.142719 7.70038 0.00913065 8.06334 0.00415633 8.44254Z" fill="white"/>
</svg>
