<svg width="8" height="16" viewBox="0 0 8 16" fill="none" xmlns="http://www.w3.org/2000/svg">
<path d="M8.00427 8.44242C8.00539 8.63889 7.97189 8.83365 7.90568 9.01554C7.83947 9.19743 7.74186 9.36287 7.61845 9.50237L2.29207 15.4739C2.16791 15.6131 2.02049 15.7235 1.85821 15.7989C1.69594 15.8742 1.52199 15.913 1.34629 15.913C1.1706 15.913 0.996609 15.8742 0.83425 15.7989C0.67189 15.7235 0.524343 15.6131 0.400033 15.4739C0.275723 15.3347 0.177085 15.1695 0.10975 14.9876C0.0424146 14.8057 0.00770254 14.6108 0.00759365 14.414C0.00748476 14.2171 0.0419812 14.0222 0.109115 13.8403C0.176249 13.6585 0.274705 13.4932 0.398861 13.354L4.80646 8.44241L0.566633 3.51588C0.430264 3.37855 0.320635 3.21119 0.244602 3.02426C0.168569 2.83733 0.127769 2.63486 0.124752 2.42951C0.121734 2.22415 0.156564 2.02034 0.227066 1.83081C0.297567 1.64128 0.402223 1.47011 0.534487 1.32801C0.66675 1.18591 0.823776 1.07593 0.995745 1.00495C1.16771 0.933974 1.35092 0.903527 1.53392 0.915513C1.71692 0.927498 1.89576 0.981658 2.05927 1.07461C2.22278 1.16755 2.36743 1.29729 2.48418 1.4557L7.63063 7.42725C7.8657 7.70026 7.99929 8.06322 8.00427 8.44242Z" fill="white"/>
</svg>
