<svg width="31" height="32" viewBox="0 0 31 32" fill="none" xmlns="http://www.w3.org/2000/svg">
<path d="M9.55972 16.0378C10.8143 18.6287 12.9094 20.7184 15.5035 21.9663C15.6948 22.057 15.9065 22.0962 16.1176 22.0801C16.3287 22.0641 16.532 21.9934 16.7075 21.8749L20.5176 19.3297C20.6859 19.2156 20.8805 19.1459 21.083 19.1273C21.2856 19.1086 21.4895 19.1416 21.6759 19.2231L28.8084 22.2864C29.0522 22.3879 29.2559 22.5666 29.388 22.7952C29.5202 23.0238 29.5736 23.2895 29.54 23.5514C29.3139 25.3158 28.4527 26.9374 27.1174 28.1128C25.7822 29.2881 24.0644 29.9367 22.2855 29.9371C16.7884 29.9371 11.5164 27.7534 7.62928 23.8663C3.74221 19.9792 1.55847 14.7072 1.55847 9.21008C1.55887 7.4312 2.20743 5.71343 3.38279 4.37817C4.55816 3.04292 6.17978 2.18168 7.94423 1.95561C8.20612 1.92197 8.4718 1.97536 8.70037 2.10754C8.92895 2.23973 9.10773 2.44339 9.20918 2.68716L12.2725 9.83494C12.3522 10.0184 12.3855 10.2185 12.3696 10.4179C12.3536 10.6172 12.2889 10.8096 12.1811 10.978L9.63592 14.849C9.52261 15.0241 9.4561 15.2254 9.44276 15.4335C9.42942 15.6416 9.46969 15.8497 9.55972 16.0378Z" stroke="#BABABA" stroke-width="2.44591" stroke-linecap="round" stroke-linejoin="round"/>
</svg>
