<svg width="27" height="21" viewBox="0 0 27 21" fill="none" xmlns="http://www.w3.org/2000/svg">
<path fill-rule="evenodd" clip-rule="evenodd" d="M0 20.0455C0 19.7924 0.100559 19.5496 0.279555 19.3706C0.458551 19.1916 0.701322 19.0911 0.954461 19.0911H25.7704C26.0236 19.0911 26.2663 19.1916 26.4453 19.3706C26.6243 19.5496 26.7249 19.7924 26.7249 20.0455C26.7249 20.2987 26.6243 20.5414 26.4453 20.7204C26.2663 20.8994 26.0236 21 25.7704 21H0.954461C0.701322 21 0.458551 20.8994 0.279555 20.7204C0.100559 20.5414 0 20.2987 0 20.0455Z" fill="white"/>
<path d="M14.0372 0.279554C13.8582 0.100558 13.6154 0 13.3623 0C13.1091 0 12.8663 0.100558 12.6874 0.279554C12.5084 0.45855 12.4078 0.701322 12.4078 0.954461V12.0128L8.31125 7.91439C8.13203 7.73517 7.88895 7.63448 7.63549 7.63448C7.38203 7.63448 7.13896 7.73517 6.95973 7.91439C6.78051 8.09361 6.67983 8.33669 6.67983 8.59015C6.67983 8.84361 6.78051 9.08668 6.95973 9.26591L12.6865 14.9927C12.7752 15.0816 12.8805 15.1521 12.9964 15.2002C13.1124 15.2483 13.2367 15.2731 13.3623 15.2731C13.4878 15.2731 13.6121 15.2483 13.7281 15.2002C13.844 15.1521 13.9494 15.0816 14.038 14.9927L19.7648 9.26591C19.8535 9.17716 19.9239 9.07181 19.9719 8.95586C20.02 8.83992 20.0447 8.71565 20.0447 8.59015C20.0447 8.46465 20.02 8.34038 19.9719 8.22443C19.9239 8.10848 19.8535 8.00313 19.7648 7.91439C19.676 7.82565 19.5707 7.75525 19.4547 7.70723C19.3388 7.6592 19.2145 7.63448 19.089 7.63448C18.9635 7.63448 18.8392 7.6592 18.7233 7.70723C18.6074 7.75525 18.502 7.82565 18.4133 7.91439L14.3167 12.0128V0.954461C14.3167 0.701322 14.2162 0.45855 14.0372 0.279554Z" fill="white"/>
</svg>
