<svg width="18" height="14" viewBox="0 0 18 14" fill="none" xmlns="http://www.w3.org/2000/svg">
<path d="M15.6335 2.83615C15.5682 2.58122 15.3838 2.38878 15.1725 2.32945C14.7971 2.22476 12.9747 1.98455 9.12246 1.98455C5.27026 1.98455 3.44817 2.22484 3.07125 2.32971C2.86203 2.38792 2.67756 2.58027 2.61147 2.83615C2.51833 3.19945 2.2741 4.72047 2.2741 7.12082C2.2741 9.52118 2.51833 11.0422 2.61173 11.4065C2.6767 11.6605 2.86118 11.8529 3.07151 11.9119C3.44817 12.0168 5.27026 12.2571 9.12246 12.2571C12.9747 12.2571 14.7971 12.0169 15.1736 11.9119C15.3829 11.8537 15.5674 11.6614 15.6335 11.4055C15.7266 11.0422 15.9708 9.51775 15.9708 7.12082C15.9708 4.7239 15.7266 3.19945 15.6335 2.83615ZM17.2919 2.41103C17.6829 3.93634 17.6829 7.12082 17.6829 7.12082C17.6829 7.12082 17.6829 10.3053 17.2919 11.8306C17.074 12.6742 16.4382 13.3373 15.6323 13.5614C14.1698 13.9692 9.12246 13.9692 9.12246 13.9692C9.12246 13.9692 4.07813 13.9692 2.61258 13.5614C1.80371 13.3342 1.16792 12.6711 0.952967 11.8306C0.562011 10.3053 0.562012 7.12082 0.562012 7.12082C0.562012 7.12082 0.562011 3.93634 0.952967 2.41103C1.17092 1.5674 1.80662 0.904394 2.61258 0.680281C4.07813 0.272461 9.12246 0.272461 9.12246 0.272461C9.12246 0.272461 14.1698 0.272461 15.6323 0.680281C16.4412 0.907476 17.077 1.57057 17.2919 2.41103ZM7.41037 10.117V4.12467L12.5466 7.12082L7.41037 10.117Z" fill="black"/>
</svg>
