<svg width="24" height="28" viewBox="0 0 24 28" fill="none" xmlns="http://www.w3.org/2000/svg">
<path d="M3.60716 2.68692C2.27391 1.93334 0.623047 2.89656 0.623047 4.42804V23.5724C0.623047 25.1039 2.27391 26.0671 3.60716 25.3136L20.5426 15.7414C21.8971 14.9758 21.8971 13.0247 20.5426 12.2591L3.60716 2.68692Z" fill="url(#paint0_linear_2011_4)"/>
<path d="M3.60716 2.68692C2.27391 1.93334 0.623047 2.89656 0.623047 4.42804V23.5724C0.623047 25.1039 2.27391 26.0671 3.60716 25.3136L20.5426 15.7414C21.8971 14.9758 21.8971 13.0247 20.5426 12.2591L3.60716 2.68692Z" fill="url(#paint1_linear_2011_4)"/>
<defs>
<linearGradient id="paint0_linear_2011_4" x1="0.623047" y1="2.00024" x2="20.623" y2="34.0002" gradientUnits="userSpaceOnUse">
<stop stop-color="white"/>
<stop offset="1" stop-color="white" stop-opacity="0"/>
</linearGradient>
<linearGradient id="paint1_linear_2011_4" x1="-11.377" y1="-10.9998" x2="12.623" y2="19.5002" gradientUnits="userSpaceOnUse">
<stop stop-color="white" stop-opacity="0"/>
<stop offset="1" stop-color="white"/>
</linearGradient>
</defs>
</svg>
