<svg width="17" height="17" viewBox="0 0 17 17" fill="none" xmlns="http://www.w3.org/2000/svg">
<path d="M16.6094 16.3779H0V14.9082L16.6094 12.3486V16.3779Z" fill="black"/>
<path d="M0 3.13672L5.09863 3.92285L5.02832 3.99023C4.22121 4.79009 3.76283 5.86795 3.7627 6.98242C3.7627 7.86869 3.96602 8.75333 4.38574 9.64062L4.56055 10.0098H4.99902C5.84586 10.0147 6.40658 10.2698 6.77246 10.7188C7.0628 11.0741 7.22786 11.5523 7.28027 12.0703L7.29004 12.1602L7.29492 12.2119C7.32112 12.4858 7.33724 12.7125 7.34375 12.8887L7.34473 12.9209L7.3457 12.9424L7.34668 12.9824L7.34961 13.1279L0 14.2607V3.13672Z" fill="black"/>
<path d="M16.6094 5.69531V11.7012L9.2666 12.833C9.27413 12.6743 9.28891 12.4791 9.31055 12.249L9.31738 12.1787L9.32129 12.1426L9.3291 12.0605L9.33105 12.0449C9.38747 11.5298 9.55533 11.0569 9.8457 10.707C10.2161 10.261 10.7823 10.0098 11.6357 10.0098H12.0479L12.2227 9.64062L12.2354 9.61328C12.6469 8.73498 12.8457 7.8597 12.8457 6.98242C12.8446 6.30616 12.6781 5.64023 12.3604 5.04102L16.6094 5.69531Z" fill="black"/>
<path d="M16.6094 5.04785L11.8799 4.31934C11.7857 4.20525 11.6857 4.09542 11.5801 3.99023C10.7408 3.15878 9.58765 2.68468 8.30469 2.68457C7.37823 2.68457 6.51948 2.93222 5.79785 3.38281L0 2.48926V0H16.6094V5.04785Z" fill="black"/>
<path fill-rule="evenodd" clip-rule="evenodd" d="M8.30489 3.32613C10.6239 3.32613 12.1977 5.08591 12.1977 6.98453C12.1977 7.74684 12.029 8.53979 11.6355 9.37153C9.35423 9.37153 8.79104 10.9824 8.68437 11.9968L8.67735 12.0638C8.64157 12.4261 8.62043 12.7164 8.61495 12.9347L7.99688 13.03V13.0101C7.98832 12.6876 7.96615 12.3656 7.93046 12.0449L7.929 12.0271C7.83038 11.0151 7.27926 9.37153 4.97487 9.37153C4.58083 8.53979 4.41219 7.74684 4.41219 6.98453C4.41219 5.08591 5.98638 3.32613 8.30489 3.32613Z" fill="black"/>
</svg>
