<svg width="565" height="223" viewBox="0 0 565 223" fill="none" xmlns="http://www.w3.org/2000/svg">
<g opacity="0.2" clip-path="url(#clip0_2053_41)">
<path d="M0 222.787H564.719V118.72H0V222.787Z" fill="white"/>
<mask id="mask0_2053_41" style="mask-type:luminance" maskUnits="userSpaceOnUse" x="-1" y="0" width="566" height="223">
<path d="M-0.00012207 0H564.719V222.787H-0.00012207V0Z" fill="white"/>
</mask>
<g mask="url(#mask0_2053_41)">
<path d="M200.238 195.615L199.228 196.657C198.389 195.842 197.569 195.436 196.767 195.436C196.258 195.436 195.82 195.603 195.459 195.939C195.095 196.276 194.914 196.668 194.914 197.116C194.914 197.513 195.062 197.889 195.362 198.249C195.662 198.615 196.291 199.045 197.249 199.537C198.419 200.143 199.211 200.727 199.632 201.287C200.042 201.854 200.249 202.493 200.249 203.203C200.249 204.204 199.897 205.053 199.193 205.748C198.489 206.443 197.611 206.79 196.556 206.79C195.852 206.79 195.18 206.637 194.541 206.331C193.899 206.025 193.371 205.601 192.95 205.064L193.938 203.942C194.739 204.846 195.59 205.299 196.489 205.299C197.118 205.299 197.653 205.097 198.096 204.695C198.538 204.291 198.758 203.815 198.758 203.27C198.758 202.822 198.613 202.422 198.319 202.072C198.028 201.727 197.369 201.294 196.343 200.771C195.241 200.203 194.493 199.643 194.095 199.091C193.7 198.537 193.501 197.905 193.501 197.194C193.501 196.269 193.818 195.499 194.45 194.885C195.082 194.273 195.88 193.967 196.847 193.967C197.97 193.967 199.1 194.516 200.238 195.615Z" fill="#202020"/>
<path d="M207.597 194.28H209.166V196.388C209.714 195.61 210.273 195.042 210.85 194.684C211.644 194.205 212.476 193.967 213.353 193.967C213.942 193.967 214.506 194.083 215.035 194.314C215.566 194.547 216.001 194.854 216.338 195.238C216.674 195.624 216.965 196.175 217.213 196.893C217.735 195.936 218.387 195.209 219.17 194.712C219.952 194.216 220.794 193.967 221.697 193.967C222.54 193.967 223.284 194.181 223.928 194.606C224.573 195.032 225.05 195.626 225.364 196.388C225.678 197.15 225.834 198.293 225.834 199.817V206.476H224.231V199.817C224.231 198.51 224.14 197.612 223.953 197.121C223.765 196.633 223.448 196.238 222.998 195.939C222.546 195.641 222.008 195.491 221.383 195.491C220.624 195.491 219.929 195.714 219.299 196.163C218.668 196.611 218.209 197.209 217.918 197.956C217.629 198.705 217.484 199.952 217.484 201.701V206.476H215.915V200.234C215.915 198.761 215.823 197.76 215.641 197.234C215.456 196.708 215.138 196.287 214.682 195.968C214.226 195.652 213.684 195.491 213.055 195.491C212.332 195.491 211.653 195.71 211.022 196.147C210.389 196.584 209.924 197.173 209.621 197.912C209.319 198.651 209.166 199.785 209.166 201.309V206.476H207.597V194.28Z" fill="#202020"/>
<path d="M233.495 194.28H235.064V206.476H233.495V194.28ZM234.274 189.259C234.631 189.259 234.937 189.386 235.189 189.64C235.442 189.894 235.569 190.2 235.569 190.558C235.569 190.91 235.442 191.213 235.189 191.467C234.937 191.721 234.631 191.848 234.274 191.848C233.924 191.848 233.622 191.721 233.37 191.467C233.116 191.213 232.99 190.91 232.99 190.558C232.99 190.2 233.116 189.894 233.37 189.64C233.622 189.386 233.924 189.259 234.274 189.259Z" fill="#202020"/>
<path d="M242.685 189.573H244.253V206.476H242.685V189.573Z" fill="#202020"/>
<path d="M262.373 199.145C262.164 198.308 261.859 197.64 261.458 197.138C261.059 196.638 260.529 196.235 259.87 195.928C259.213 195.622 258.52 195.469 257.794 195.469C256.597 195.469 255.569 195.854 254.707 196.624C254.08 197.184 253.606 198.024 253.283 199.145H262.373ZM262.373 202.429L263.696 203.125C263.262 203.976 262.76 204.663 262.193 205.187C261.625 205.71 260.985 206.108 260.274 206.38C259.563 206.653 258.76 206.789 257.862 206.789C255.872 206.789 254.316 206.137 253.195 204.833C252.074 203.529 251.512 202.056 251.512 200.412C251.512 198.865 251.986 197.486 252.937 196.275C254.14 194.736 255.753 193.966 257.771 193.966C259.853 193.966 261.512 194.755 262.753 196.332C263.636 197.446 264.084 198.836 264.1 200.502H253.127C253.157 201.918 253.607 203.079 254.484 203.985C255.359 204.891 256.44 205.344 257.727 205.344C258.348 205.344 258.953 205.236 259.539 205.02C260.127 204.804 260.626 204.518 261.039 204.16C261.449 203.803 261.894 203.226 262.373 202.429Z" fill="#202020"/>
<path d="M288.862 195.48C287.505 195.48 286.362 195.955 285.436 196.902C284.505 197.851 284.043 199.029 284.043 200.439C284.043 201.366 284.248 202.199 284.665 202.937C285.076 203.676 285.668 204.262 286.441 204.695C287.214 205.128 288.027 205.344 288.885 205.344C289.727 205.344 290.52 205.127 291.261 204.689C292.003 204.251 292.594 203.642 293.034 202.858C293.474 202.075 293.694 201.253 293.694 200.395C293.694 199.53 293.477 198.708 293.039 197.932C292.603 197.156 292.017 196.553 291.277 196.125C290.541 195.695 289.733 195.48 288.862 195.48ZM282.585 194.281H284.155V196.523C284.775 195.67 285.486 195.032 286.293 194.607C287.101 194.18 288.001 193.967 288.993 193.967C290.723 193.967 292.206 194.591 293.437 195.839C294.669 197.087 295.284 198.589 295.284 200.346C295.284 202.139 294.675 203.662 293.455 204.912C292.232 206.164 290.762 206.79 289.037 206.79C288.065 206.79 287.174 206.588 286.36 206.184C285.546 205.78 284.811 205.18 284.155 204.38V210.938H282.585V194.281Z" fill="#202020"/>
<path d="M302.218 194.28H303.821V196.063C304.298 195.361 304.803 194.834 305.334 194.488C305.865 194.139 306.418 193.967 306.993 193.967C307.426 193.967 307.89 194.106 308.383 194.381L307.565 195.705C307.236 195.563 306.959 195.491 306.734 195.491C306.211 195.491 305.708 195.707 305.222 196.135C304.737 196.565 304.367 197.232 304.113 198.137C303.919 198.832 303.821 200.237 303.821 202.35V206.476H302.218V194.28Z" fill="#202020"/>
<path d="M319.985 195.502C318.679 195.502 317.559 195.983 316.623 196.947C315.683 197.911 315.216 199.077 315.216 200.444C315.216 201.327 315.429 202.149 315.857 202.911C316.284 203.673 316.861 204.262 317.59 204.676C318.317 205.092 319.116 205.298 319.985 205.298C320.854 205.298 321.653 205.092 322.381 204.676C323.108 204.262 323.685 203.673 324.112 202.911C324.541 202.149 324.755 201.327 324.755 200.444C324.755 199.077 324.284 197.911 323.343 196.947C322.401 195.983 321.283 195.502 319.985 195.502ZM319.991 193.966C321.869 193.966 323.427 194.645 324.663 196.006C325.785 197.247 326.345 198.716 326.345 200.412C326.345 202.115 325.754 203.604 324.567 204.878C323.381 206.152 321.855 206.789 319.991 206.789C318.119 206.789 316.589 206.152 315.404 204.878C314.217 203.604 313.625 202.115 313.625 200.412C313.625 198.722 314.186 197.258 315.308 196.018C316.545 194.65 318.104 193.966 319.991 193.966Z" fill="#202020"/>
<path d="M339.744 195.48C338.872 195.48 338.064 195.695 337.326 196.125C336.587 196.553 336 197.156 335.563 197.932C335.126 198.708 334.908 199.53 334.908 200.394C334.908 201.253 335.127 202.075 335.568 202.858C336.009 203.642 336.599 204.251 337.343 204.689C338.085 205.126 338.883 205.344 339.732 205.344C340.591 205.344 341.405 205.128 342.175 204.695C342.943 204.262 343.535 203.676 343.947 202.936C344.363 202.199 344.568 201.366 344.568 200.439C344.568 199.029 344.106 197.851 343.176 196.902C342.247 195.955 341.102 195.48 339.744 195.48ZM346.016 189.573V206.476H344.469V204.38C343.811 205.18 343.073 205.78 342.256 206.184C341.436 206.588 340.542 206.79 339.571 206.79C337.844 206.79 336.37 206.164 335.149 204.912C333.926 203.662 333.315 202.139 333.315 200.346C333.315 198.589 333.932 197.087 335.165 195.838C336.397 194.591 337.882 193.967 339.616 193.967C340.617 193.967 341.523 194.18 342.332 194.606C343.143 195.032 343.857 195.67 344.469 196.523V189.573H346.016Z" fill="#202020"/>
<path d="M353.959 194.281H355.528V199.975C355.528 201.365 355.603 202.321 355.753 202.845C355.978 203.591 356.408 204.182 357.04 204.615C357.672 205.048 358.425 205.266 359.3 205.266C360.175 205.266 360.919 205.055 361.528 204.632C362.141 204.21 362.56 203.656 362.791 202.969C362.95 202.497 363.028 201.499 363.028 199.975V194.281H364.63V200.266C364.63 201.948 364.436 203.215 364.041 204.067C363.65 204.918 363.059 205.586 362.272 206.066C361.482 206.55 360.495 206.79 359.306 206.79C358.119 206.79 357.127 206.55 356.33 206.066C355.534 205.586 354.94 204.912 354.548 204.049C354.156 203.186 353.959 201.888 353.959 200.154V194.281Z" fill="#202020"/>
<path d="M384.544 196.813L383.299 197.588C382.225 196.16 380.757 195.445 378.899 195.445C377.413 195.445 376.181 195.924 375.199 196.879C374.218 197.834 373.728 198.996 373.728 200.361C373.728 201.248 373.952 202.086 374.403 202.869C374.856 203.654 375.476 204.262 376.263 204.693C377.051 205.128 377.934 205.344 378.91 205.344C380.701 205.344 382.165 204.629 383.299 203.203L384.544 204.022C383.96 204.898 383.177 205.581 382.196 206.065C381.212 206.547 380.095 206.79 378.838 206.79C376.911 206.79 375.312 206.176 374.042 204.95C372.772 203.726 372.135 202.236 372.135 200.48C372.135 199.299 372.432 198.201 373.027 197.188C373.62 196.177 374.437 195.385 375.476 194.818C376.513 194.25 377.677 193.967 378.962 193.967C379.769 193.967 380.548 194.091 381.299 194.337C382.049 194.584 382.686 194.905 383.209 195.301C383.732 195.698 384.178 196.201 384.544 196.813Z" fill="#202020"/>
<path d="M393.517 189.752H395.085V194.28H397.572V195.638H395.085V206.476H393.517V195.638H391.375V194.28H393.517V189.752Z" fill="#202020"/>
<path d="M404.284 194.28H405.853V206.476H404.284V194.28ZM405.065 189.259C405.42 189.259 405.724 189.386 405.978 189.64C406.231 189.894 406.358 190.2 406.358 190.558C406.358 190.91 406.231 191.213 405.978 191.467C405.724 191.721 405.42 191.848 405.065 191.848C404.713 191.848 404.413 191.721 404.159 191.467C403.906 191.213 403.779 190.91 403.779 190.558C403.779 190.2 403.906 189.894 404.159 189.64C404.413 189.386 404.713 189.259 405.065 189.259Z" fill="#202020"/>
<path d="M419.472 195.502C418.166 195.502 417.045 195.983 416.109 196.947C415.171 197.911 414.702 199.077 414.702 200.444C414.702 201.327 414.915 202.149 415.343 202.911C415.77 203.673 416.349 204.262 417.076 204.676C417.803 205.092 418.602 205.298 419.472 205.298C420.34 205.298 421.141 205.092 421.866 204.676C422.595 204.262 423.173 203.673 423.6 202.911C424.028 202.149 424.24 201.327 424.24 200.444C424.24 199.077 423.771 197.911 422.829 196.947C421.887 195.983 420.77 195.502 419.472 195.502ZM419.477 193.966C421.355 193.966 422.913 194.645 424.148 196.006C425.271 197.247 425.833 198.716 425.833 200.412C425.833 202.115 425.239 203.604 424.051 204.878C422.865 206.152 421.341 206.789 419.477 206.789C417.604 206.789 416.077 206.152 414.89 204.878C413.703 203.604 413.111 202.115 413.111 200.412C413.111 198.722 413.671 197.258 414.794 196.018C416.029 194.65 417.592 193.966 419.477 193.966Z" fill="#202020"/>
<path d="M433.328 194.28H434.896V196.467C435.525 195.63 436.222 195.004 436.984 194.588C437.746 194.175 438.574 193.967 439.471 193.967C440.381 193.967 441.192 194.198 441.898 194.661C442.603 195.125 443.125 195.749 443.46 196.535C443.799 197.318 443.965 198.539 443.965 200.198V206.476H442.397V200.659C442.397 199.254 442.337 198.316 442.222 197.845C442.04 197.038 441.691 196.43 441.177 196.023C440.66 195.616 439.988 195.413 439.157 195.413C438.208 195.413 437.357 195.727 436.607 196.354C435.856 196.983 435.36 197.759 435.121 198.686C434.971 199.291 434.896 200.397 434.896 202.004V206.476H433.328V194.28Z" fill="#202020"/>
<path d="M113.663 25.1115L98.3374 0.0006547C98.3374 0.0006547 84.4245 20.5157 82.1503 32.0198C79.8777 43.5223 84.8545 77.7223 84.8545 77.7223L84.6709 141.572L88.5658 138.616L88.6959 77.4789L108.923 35.0974L113.663 25.1115Z" fill="white"/>
<path d="M209.274 76.2607C209.274 76.2607 206.9 81.6202 201.975 84.1361L194.118 81.7104L154.716 66.9436L169.872 118.72H119.067C119.067 118.72 141.835 73.0285 139.561 63.3226C137.288 53.6168 107.128 46.9167 107.128 46.9167L112.451 35.8733L138.803 47.5028C138.803 47.5028 144.107 44.2676 149.032 46.0643C153.959 47.8625 154.337 50.7381 154.716 53.6138C155.094 56.4894 209.274 76.2607 209.274 76.2607Z" fill="white"/>
<path d="M202.316 83.7071V110.752H206.105C209.834 110.752 212.54 110.325 214.219 109.468C215.901 108.613 217.275 107.173 218.345 105.151C219.413 103.128 219.947 100.638 219.947 97.6812C219.947 93.1313 218.674 89.6007 216.129 87.0908C213.836 84.835 210.154 83.7071 205.084 83.7071H202.316ZM194.214 75.8378H203.88C210.113 75.8378 214.741 76.6106 217.771 78.1563C220.798 79.699 223.293 82.2104 225.253 85.689C227.215 89.1661 228.195 93.2277 228.195 97.871C228.195 101.174 227.647 104.21 226.55 106.978C225.452 109.747 223.939 112.044 222.006 113.87C220.074 115.697 217.982 116.96 215.733 117.659C213.48 118.359 209.579 118.709 204.027 118.709H194.214V75.8378Z" fill="white"/>
<path d="M236.005 75.8383H259.406V83.824H244.107V91.5755H259.406V99.4157H244.107V110.693H259.406V118.708H236.005V75.8383Z" fill="white"/>
<path d="M267.038 75.8383H274.866L293.21 104.05V75.8383H301.37V118.708H293.52L275.198 90.5853V118.708H267.038V75.8383Z" fill="white"/>
<path d="M306.937 75.8383H330.629V83.8821H322.819V118.708H314.543V83.8821H306.937V75.8383Z" fill="white"/>
<path d="M353.496 87.2046L347.743 101.923H359.213L353.496 87.2046ZM349.307 75.8383H357.583L374.07 118.708H365.589L362.236 109.878H344.743L341.255 118.708H332.774L349.307 75.8383Z" fill="white"/>
<path d="M380.382 75.8383H388.542V110.927H400.434V118.708H380.382V75.8383Z" fill="white"/>
<path d="M199.017 139.72V154.291L206.403 154.352C209.264 154.352 211.38 154.079 212.753 153.535C214.124 152.991 215.194 152.122 215.962 150.925C216.732 149.732 217.116 148.396 217.116 146.919C217.116 145.482 216.726 144.175 215.948 142.999C215.171 141.824 214.149 140.982 212.884 140.477C211.617 139.972 209.516 139.72 206.578 139.72H199.017ZM194.734 135.523H203.272C208.033 135.523 211.258 135.719 212.949 136.108C215.494 136.691 217.563 137.941 219.156 139.857C220.749 141.773 221.547 144.132 221.547 146.934C221.547 149.268 220.996 151.32 219.9 153.089C218.801 154.862 217.232 156.199 215.192 157.102C213.152 158.006 210.336 158.469 206.741 158.489L222.157 178.395H216.857L201.44 158.489H199.017V178.395H194.734V135.523Z" fill="#202020"/>
<path d="M230.76 135.523H255.328V139.72H235.044V153.155H255.152V157.353H235.044V174.198H255.152V178.395H230.76V135.523Z" fill="#202020"/>
<path d="M266.547 171.981C267.538 171.981 268.382 172.331 269.082 173.031C269.781 173.73 270.132 174.584 270.132 175.594C270.132 176.586 269.781 177.435 269.082 178.144C268.382 178.852 267.538 179.209 266.547 179.209C265.557 179.209 264.711 178.852 264.012 178.144C263.312 177.435 262.962 176.586 262.962 175.594C262.962 174.584 263.312 173.73 264.012 173.031C264.711 172.331 265.557 171.981 266.547 171.981ZM266.547 145.869C267.538 145.869 268.382 146.218 269.082 146.917C269.781 147.617 270.132 148.472 270.132 149.482C270.132 150.492 269.781 151.348 269.082 152.047C268.382 152.747 267.538 153.096 266.547 153.096C265.557 153.096 264.711 152.747 264.012 152.047C263.312 151.348 262.962 150.492 262.962 149.482C262.962 148.491 263.312 147.641 264.012 146.933C264.711 146.223 265.557 145.869 266.547 145.869Z" fill="#202020"/>
<path d="M274.825 170.407L278.467 168.22C281.032 172.942 283.995 175.303 287.356 175.303C288.794 175.303 290.144 174.968 291.407 174.297C292.669 173.627 293.632 172.729 294.293 171.601C294.953 170.474 295.283 169.281 295.283 168.017C295.283 166.58 294.798 165.17 293.826 163.791C292.486 161.887 290.037 159.595 286.482 156.914C282.907 154.212 280.682 152.261 279.808 151.055C278.293 149.035 277.535 146.848 277.535 144.497C277.535 142.633 277.982 140.933 278.874 139.398C279.768 137.863 281.028 136.654 282.648 135.77C284.272 134.886 286.035 134.444 287.939 134.444C289.961 134.444 291.849 134.945 293.606 135.944C295.366 136.946 297.227 138.786 299.189 141.467L295.692 144.119C294.079 141.983 292.705 140.573 291.566 139.894C290.43 139.213 289.192 138.875 287.852 138.875C286.122 138.875 284.708 139.398 283.611 140.448C282.512 141.496 281.964 142.788 281.964 144.323C281.964 145.255 282.159 146.159 282.547 147.035C282.936 147.909 283.646 148.861 284.676 149.891C285.239 150.434 287.085 151.862 290.213 154.174C293.923 156.914 296.469 159.352 297.848 161.489C299.227 163.626 299.917 165.773 299.917 167.929C299.917 171.038 298.736 173.739 296.376 176.031C294.015 178.324 291.145 179.47 287.765 179.47C285.161 179.47 282.8 178.775 280.682 177.387C278.564 175.998 276.612 173.672 274.825 170.407Z" fill="#202020"/>
<path d="M329.586 138.611C326.415 138.611 323.408 139.438 320.566 141.091C317.725 142.744 315.506 144.97 313.911 147.769C312.315 150.57 311.516 153.692 311.516 157.134C311.516 162.227 313.284 166.529 316.815 170.038C320.347 173.549 324.604 175.304 329.586 175.304C332.915 175.304 335.994 174.496 338.825 172.883C341.656 171.269 343.865 169.062 345.45 166.261C347.036 163.462 347.83 160.351 347.83 156.929C347.83 153.525 347.036 150.448 345.45 147.697C343.865 144.946 341.632 142.744 338.751 141.091C335.871 139.438 332.817 138.611 329.586 138.611ZM329.396 134.444C335.89 134.444 341.324 136.61 345.698 140.942C350.073 145.275 352.259 150.61 352.259 156.944C352.259 163.219 350.078 168.543 345.712 172.914C341.349 177.286 336.026 179.47 329.745 179.47C323.389 179.47 318.022 177.294 313.648 172.943C309.276 168.591 307.087 163.324 307.087 157.146C307.087 153.028 308.084 149.211 310.076 145.694C312.07 142.177 314.785 139.423 318.227 137.432C321.668 135.44 325.391 134.444 329.396 134.444Z" fill="#202020"/>
<path d="M360.996 135.522H365.281V161.401C365.281 164.471 365.339 166.385 365.456 167.143C365.67 168.834 366.164 170.246 366.942 171.384C367.719 172.521 368.914 173.473 370.527 174.239C372.139 175.008 373.761 175.39 375.393 175.39C376.811 175.39 378.172 175.089 379.473 174.487C380.775 173.884 381.863 173.049 382.737 171.98C383.611 170.912 384.252 169.619 384.661 168.104C384.952 167.016 385.098 164.781 385.098 161.401V135.522H389.382V161.401C389.382 165.228 389.009 168.324 388.259 170.684C387.512 173.046 386.017 175.098 383.772 176.847C381.528 178.596 378.813 179.47 375.627 179.47C372.168 179.47 369.205 178.645 366.738 176.994C364.271 175.343 362.62 173.156 361.784 170.435C361.259 168.765 360.996 165.753 360.996 161.401V135.522Z" fill="#202020"/>
<path d="M404.45 139.72V154.291L411.834 154.352C414.695 154.352 416.811 154.079 418.184 153.535C419.555 152.991 420.625 152.122 421.395 150.925C422.165 149.732 422.547 148.396 422.547 146.919C422.547 145.482 422.158 144.175 421.381 142.999C420.602 141.824 419.581 140.982 418.316 140.477C417.05 139.972 414.947 139.72 412.009 139.72H404.45ZM400.165 135.523H408.705C413.466 135.523 416.69 135.719 418.381 136.108C420.927 136.691 422.994 137.941 424.589 139.857C426.18 141.773 426.978 144.132 426.978 146.934C426.978 149.268 426.428 151.32 425.333 153.089C424.234 154.862 422.664 156.199 420.623 157.102C418.583 158.006 415.768 158.469 412.173 158.489L427.59 178.395H422.29L406.871 158.489H404.45V178.395H400.165V135.523Z" fill="#202020"/>
<path d="M476.087 143.48L472.706 146.072C470.841 143.643 468.6 141.804 465.988 140.55C463.374 139.299 460.503 138.67 457.375 138.67C453.956 138.67 450.791 139.493 447.876 141.134C444.962 142.776 442.703 144.979 441.101 147.749C439.497 150.518 438.695 153.631 438.695 157.09C438.695 162.316 440.487 166.677 444.073 170.174C447.657 173.673 452.179 175.421 457.638 175.421C463.642 175.421 468.663 173.07 472.706 168.369L476.087 170.932C473.949 173.653 471.282 175.756 468.086 177.243C464.891 178.728 461.32 179.472 457.375 179.472C449.876 179.472 443.961 176.976 439.628 171.982C435.995 167.766 434.177 162.675 434.177 156.711C434.177 150.435 436.379 145.155 440.779 140.872C445.181 136.587 450.692 134.446 457.318 134.446C461.32 134.446 464.934 135.237 468.16 136.819C471.384 138.405 474.026 140.624 476.087 143.48Z" fill="#202020"/>
<path d="M484.716 135.523H509.284V139.72H489V153.155H509.109V157.353H489V174.198H509.109V178.395H484.716V135.523Z" fill="#202020"/>
<path d="M120.555 188.388C120.555 188.388 123.824 180.26 127.053 180.33C132.059 180.441 139.36 201.135 143.607 200.948C147.854 200.761 158.362 176.844 159.927 158.536C161.494 140.229 158.724 132.866 152.872 131.5C147.021 130.133 136.015 140.918 123.276 141.164C110.537 141.412 105.549 135.311 96.1416 137.049C88.1927 138.517 92.9032 158.02 96.0038 167.354C98.881 176.013 114.715 183.817 120.608 180.078C126.502 176.341 131.387 183.948 131.387 183.948C131.387 183.948 126.995 180.682 125.086 181.873C122.91 183.231 119.015 192.147 119.015 192.147C119.015 192.147 113.962 212.865 106.101 213.597C98.0025 214.35 85.6246 195.905 81.5583 174.14C77.4921 152.373 77.6895 128.422 90.2327 127.397C102.776 126.373 109.551 138.306 123.112 136.46C136.673 134.616 143.42 125.507 157.373 125.043C171.327 124.578 171.568 144.394 170.663 156.005C169.759 167.616 152.026 209.645 143.523 211.118C135.02 212.591 129.042 183.953 126.744 184.033C123.049 184.161 120.555 188.388 120.555 188.388Z" fill="#202020"/>
<path d="M84.7774 129.949L84.7314 118.719H88.761L88.5835 127.684L84.7774 129.949Z" fill="#202020"/>
</g>
</g>
<defs>
<clipPath id="clip0_2053_41">
<rect width="564.719" height="222.787" fill="white"/>
</clipPath>
</defs>
</svg>
