<svg width="47" height="48" viewBox="0 0 47 48" fill="none" xmlns="http://www.w3.org/2000/svg">
<g clip-path="url(#clip0_2061_10)">
<path d="M40.7273 0H5.81818C2.60489 0 0 2.60489 0 5.81818V42.1818C0 45.3951 2.60489 48 5.81818 48H40.7273C43.9406 48 46.5455 45.3951 46.5455 42.1818V5.81818C46.5455 2.60489 43.9406 0 40.7273 0Z" fill="#151515"/>
<path d="M21.4972 30.426C21.4972 30.426 22.3917 28.2018 23.2752 28.2212C24.645 28.2513 26.6429 33.9138 27.805 33.8626C28.967 33.8116 31.8422 27.2673 32.2707 22.2575C32.6995 17.2484 31.9415 15.2337 30.3401 14.8598C28.7392 14.4858 25.7276 17.4369 22.2418 17.5042C18.7559 17.5721 17.3913 15.9025 14.8172 16.3782C12.6421 16.7798 13.931 22.1164 14.7795 24.6705C15.5667 27.0398 19.8992 29.175 21.5119 28.1521C23.1245 27.1294 24.4612 29.2111 24.4612 29.2111C24.4612 29.2111 23.2594 28.3174 22.7372 28.6433C22.1417 29.0148 21.0759 31.4543 21.0759 31.4543C21.0759 31.4543 19.6932 37.1236 17.5424 37.3237C15.3264 37.5298 11.9394 32.4828 10.8268 26.5272C9.71413 20.5713 9.76815 14.0176 13.2003 13.7371C16.6324 13.4569 18.4863 16.722 22.197 16.2169C25.9076 15.7124 27.7539 13.2199 31.5718 13.093C35.39 12.9657 35.4557 18.3878 35.2083 21.565C34.9607 24.742 30.1085 36.2425 27.782 36.6453C25.4553 37.0486 23.8196 29.2123 23.1907 29.2341C22.1798 29.2693 21.4972 30.426 21.4972 30.426Z" fill="white"/>
</g>
<defs>
<clipPath id="clip0_2061_10">
<rect width="46.5455" height="48" fill="white"/>
</clipPath>
</defs>
</svg>
