<svg width="165" height="65" viewBox="0 0 165 65" fill="none" xmlns="http://www.w3.org/2000/svg">
<g clip-path="url(#clip0_1_364)">
<path d="M0.380783 64.7936H164.619V34.5275H0.380783V64.7936Z" fill="black"/>
<mask id="mask0_1_364" style="mask-type:luminance" maskUnits="userSpaceOnUse" x="0" y="0" width="165" height="65">
<path d="M0.380783 7.62939e-06H164.619V64.7936H0.380783V7.62939e-06Z" fill="white"/>
</mask>
<g mask="url(#mask0_1_364)">
<path d="M58.6161 56.8911L58.3224 57.1942C58.0785 56.957 57.8399 56.839 57.6067 56.839C57.4585 56.839 57.3312 56.8875 57.2261 56.9854C57.1202 57.0834 57.0677 57.1973 57.0677 57.3277C57.0677 57.443 57.1108 57.5525 57.1981 57.6571C57.2853 57.7635 57.4682 57.8885 57.7469 58.0318C58.0869 58.2081 58.3175 58.3777 58.4399 58.5406C58.5592 58.7057 58.6192 58.8913 58.6192 59.0978C58.6192 59.3889 58.5169 59.636 58.3121 59.838C58.1074 60.0401 57.8519 60.1411 57.5452 60.1411C57.3405 60.1411 57.1451 60.0966 56.9591 60.0076C56.7726 59.9186 56.619 59.7953 56.4966 59.6391L56.7837 59.3128C57.0169 59.5759 57.2644 59.7076 57.5257 59.7076C57.7086 59.7076 57.8644 59.6489 57.993 59.5318C58.1216 59.4143 58.1857 59.2759 58.1857 59.1174C58.1857 58.987 58.1434 58.8708 58.058 58.7689C57.9734 58.6688 57.7816 58.5428 57.4834 58.3906C57.1629 58.2255 56.9453 58.0626 56.8295 57.9019C56.7147 57.7408 56.6568 57.5569 56.6568 57.3504C56.6568 57.0811 56.749 56.8572 56.9328 56.6788C57.1166 56.5007 57.3485 56.4117 57.6298 56.4117C57.9565 56.4117 58.285 56.5715 58.6161 56.8911Z" fill="white"/>
<path d="M60.7566 56.5029H61.2128V57.1158C61.3722 56.8897 61.5346 56.7246 61.7024 56.6204C61.9334 56.4811 62.1755 56.4117 62.4306 56.4117C62.6019 56.4117 62.7657 56.4455 62.9197 56.5127C63.0742 56.5804 63.2006 56.6698 63.2985 56.7816C63.3964 56.8937 63.481 57.0539 63.5531 57.2627C63.7049 56.9845 63.8945 56.7731 64.1224 56.6284C64.3498 56.4842 64.5946 56.4117 64.8572 56.4117C65.1025 56.4117 65.3188 56.474 65.5062 56.5977C65.6935 56.7215 65.8324 56.8942 65.9236 57.1158C66.0149 57.3375 66.0603 57.67 66.0603 58.1133V60.0499H65.5943V58.1133C65.5943 57.7332 65.5676 57.4719 65.5133 57.329C65.4585 57.187 65.3664 57.0722 65.2355 56.9854C65.1042 56.8986 64.9476 56.855 64.766 56.855C64.5452 56.855 64.3431 56.92 64.1598 57.0504C63.9764 57.1808 63.8429 57.3548 63.7583 57.572C63.6742 57.7897 63.6319 58.1524 63.6319 58.6612V60.0499H63.1757V58.2343C63.1757 57.8061 63.149 57.5151 63.096 57.3619C63.0421 57.2088 62.9496 57.0864 62.8169 56.9939C62.6843 56.9017 62.5267 56.855 62.3438 56.855C62.1337 56.855 61.9361 56.9186 61.7527 57.0459C61.5684 57.1728 61.4331 57.3441 61.345 57.5591C61.2573 57.7741 61.2128 58.1039 61.2128 58.5472V60.0499H60.7566V56.5029Z" fill="white"/>
<path d="M68.2886 56.5029H68.7448V60.0499H68.2886V56.5029ZM68.5152 55.0426C68.6189 55.0426 68.7079 55.0795 68.7813 55.1534C68.8548 55.2273 68.8917 55.3163 68.8917 55.4205C68.8917 55.5228 68.8548 55.611 68.7813 55.6848C68.7079 55.7587 68.6189 55.7957 68.5152 55.7957C68.4132 55.7957 68.3256 55.7587 68.2521 55.6848C68.1782 55.611 68.1417 55.5228 68.1417 55.4205C68.1417 55.3163 68.1782 55.2273 68.2521 55.1534C68.3256 55.0795 68.4132 55.0426 68.5152 55.0426Z" fill="white"/>
<path d="M70.9606 55.1338H71.4168V60.0499H70.9606V55.1338Z" fill="white"/>
<path d="M76.6871 57.9178C76.6261 57.6743 76.5375 57.4802 76.4209 57.3343C76.3048 57.1887 76.1508 57.0717 75.9589 56.9822C75.768 56.8932 75.5664 56.8487 75.3554 56.8487C75.0073 56.8487 74.7082 56.9608 74.4576 57.1847C74.2752 57.3476 74.1372 57.592 74.0433 57.9178H76.6871ZM76.6871 58.8729L77.0717 59.0755C76.9457 59.3229 76.7997 59.5228 76.6346 59.675C76.4694 59.8272 76.2834 59.9429 76.0764 60.0222C75.8699 60.1014 75.6362 60.141 75.375 60.141C74.7964 60.141 74.3437 59.9514 74.0179 59.5722C73.6916 59.193 73.5283 58.7643 73.5283 58.2863C73.5283 57.8363 73.6663 57.4353 73.9427 57.0832C74.2925 56.6355 74.7616 56.4116 75.3487 56.4116C75.954 56.4116 76.4365 56.6413 76.7975 57.0997C77.0543 57.4237 77.1847 57.8279 77.1892 58.3126H73.9979C74.0068 58.7243 74.1376 59.0621 74.3927 59.3256C74.6472 59.5891 74.9615 59.7208 75.3358 59.7208C75.5165 59.7208 75.6923 59.6892 75.8628 59.6265C76.0337 59.5637 76.1788 59.4805 76.299 59.3763C76.4183 59.2726 76.5478 59.1048 76.6871 58.8729Z" fill="white"/>
<path d="M84.3914 56.852C83.9966 56.852 83.6641 56.9899 83.3948 57.2654C83.1242 57.5414 82.9898 57.8841 82.9898 58.2941C82.9898 58.5638 83.0495 58.8059 83.1705 59.0204C83.2903 59.2354 83.4625 59.4059 83.6873 59.5318C83.912 59.6578 84.1484 59.7206 84.3981 59.7206C84.6429 59.7206 84.8734 59.6574 85.0889 59.5301C85.3047 59.4028 85.4765 59.2256 85.6047 58.9977C85.7325 58.7699 85.7966 58.5308 85.7966 58.2811C85.7966 58.0297 85.7334 57.7907 85.6061 57.565C85.4792 57.3393 85.3087 57.164 85.0938 57.0393C84.8797 56.9143 84.6447 56.852 84.3914 56.852ZM82.5656 56.503H83.0223V57.1551C83.2026 56.9071 83.4095 56.7215 83.6441 56.5978C83.8791 56.4736 84.1408 56.4118 84.4292 56.4118C84.9326 56.4118 85.3639 56.5934 85.7218 56.9561C86.0801 57.3193 86.259 57.7559 86.259 58.2669C86.259 58.7885 86.0819 59.2314 85.7271 59.5951C85.3715 59.9591 84.9438 60.1412 84.4421 60.1412C84.1595 60.1412 83.9005 60.0824 83.6637 59.9649C83.4269 59.8474 83.2133 59.6729 83.0223 59.4402V61.3474H82.5656V56.503Z" fill="white"/>
<path d="M88.2754 56.5029H88.7414V57.0215C88.8803 56.8172 89.0271 56.664 89.1816 56.5635C89.336 56.462 89.4967 56.4117 89.6641 56.4117C89.79 56.4117 89.9249 56.4522 90.0682 56.5323L89.8305 56.9173C89.7348 56.8759 89.6543 56.855 89.5889 56.855C89.4366 56.855 89.2902 56.9177 89.1491 57.0424C89.008 57.1674 88.9003 57.3615 88.8264 57.6246C88.7699 57.8266 88.7414 58.2352 88.7414 58.8499V60.0499H88.2754V56.5029Z" fill="white"/>
<path d="M93.4426 56.8585C93.063 56.8585 92.7372 56.9983 92.4648 57.2787C92.1915 57.5591 92.0557 57.8982 92.0557 58.2957C92.0557 58.5525 92.1176 58.7915 92.2422 59.0132C92.3664 59.2348 92.5342 59.4062 92.7461 59.5264C92.9575 59.6474 93.1898 59.7075 93.4426 59.7075C93.6954 59.7075 93.9278 59.6474 94.1396 59.5264C94.3511 59.4062 94.5189 59.2348 94.643 59.0132C94.7677 58.7915 94.83 58.5525 94.83 58.2957C94.83 57.8982 94.6929 57.5591 94.4192 57.2787C94.1454 56.9983 93.8201 56.8585 93.4426 56.8585ZM93.4444 56.4116C93.9905 56.4116 94.4436 56.6093 94.8033 57.0049C95.1295 57.3659 95.2924 57.7932 95.2924 58.2864C95.2924 58.7817 95.1206 59.2148 94.7752 59.5851C94.4303 59.9559 93.9865 60.141 93.4444 60.141C92.9001 60.141 92.455 59.9559 92.1105 59.5851C91.7651 59.2148 91.5928 58.7817 91.5928 58.2864C91.5928 57.795 91.7562 57.369 92.0824 57.0085C92.4421 56.6106 92.8956 56.4116 93.4444 56.4116Z" fill="white"/>
<path d="M99.1889 56.852C98.9352 56.852 98.7001 56.9143 98.4856 57.0393C98.2706 57.164 98.0997 57.3393 97.9729 57.565C97.8456 57.7907 97.7824 58.0297 97.7824 58.2811C97.7824 58.5308 97.846 58.7699 97.9742 58.9977C98.1024 59.2256 98.2742 59.4028 98.4905 59.5301C98.7064 59.6574 98.9383 59.7206 99.1853 59.7206C99.435 59.7206 99.6718 59.6578 99.8957 59.5318C100.119 59.4059 100.291 59.2354 100.411 59.0204C100.532 58.8059 100.592 58.5638 100.592 58.294C100.592 57.8841 100.457 57.5414 100.187 57.2654C99.9166 56.9899 99.5837 56.852 99.1889 56.852ZM101.013 55.1339V60.0499H100.563V59.4402C100.371 59.6729 100.157 59.8474 99.9193 59.9649C99.6807 60.0824 99.4207 60.1412 99.1386 60.1412C98.6361 60.1412 98.2074 59.9591 97.8522 59.595C97.4966 59.2314 97.319 58.7885 97.319 58.2669C97.319 57.7559 97.4984 57.3193 97.8571 56.9561C98.2154 56.5934 98.6472 56.4118 99.1515 56.4118C99.4426 56.4118 99.7061 56.4736 99.9415 56.5978C100.177 56.7215 100.385 56.9071 100.563 57.1551V55.1339H101.013Z" fill="white"/>
<path d="M103.323 56.5029H103.779V58.1591C103.779 58.5632 103.801 58.8414 103.845 58.9936C103.91 59.2108 104.035 59.3826 104.219 59.5086C104.403 59.6346 104.622 59.6978 104.876 59.6978C105.131 59.6978 105.347 59.6364 105.524 59.5135C105.702 59.3907 105.824 59.2295 105.892 59.0297C105.938 58.8926 105.961 58.6024 105.961 58.1591V56.5029H106.427V58.2437C106.427 58.7328 106.37 59.1014 106.255 59.3493C106.141 59.5967 105.969 59.7908 105.741 59.9306C105.511 60.0712 105.224 60.1411 104.878 60.1411C104.533 60.1411 104.244 60.0712 104.012 59.9306C103.781 59.7908 103.608 59.595 103.494 59.3439C103.38 59.0929 103.323 58.7155 103.323 58.2112V56.5029Z" fill="white"/>
<path d="M112.218 57.2397L111.856 57.4649C111.544 57.0496 111.117 56.8418 110.576 56.8418C110.144 56.8418 109.786 56.9811 109.5 57.2588C109.215 57.5366 109.072 57.8744 109.072 58.2714C109.072 58.5295 109.137 58.773 109.269 59.0009C109.4 59.2292 109.581 59.4059 109.809 59.5314C110.039 59.6579 110.296 59.7206 110.579 59.7206C111.1 59.7206 111.526 59.5128 111.856 59.0979L112.218 59.3361C112.048 59.5911 111.82 59.7896 111.535 59.9302C111.249 60.0705 110.924 60.1412 110.559 60.1412C109.998 60.1412 109.533 59.9627 109.164 59.6062C108.794 59.2501 108.609 58.8166 108.609 58.3061C108.609 57.9625 108.695 57.6434 108.869 57.3487C109.041 57.0545 109.278 56.8244 109.581 56.6593C109.882 56.4941 110.221 56.4118 110.595 56.4118C110.829 56.4118 111.056 56.4479 111.274 56.5195C111.492 56.5912 111.678 56.6846 111.83 56.7999C111.982 56.9152 112.111 57.0616 112.218 57.2397Z" fill="white"/>
<path d="M114.827 55.1859H115.284V56.503H116.007V56.8978H115.284V60.0499H114.827V56.8978H114.205V56.503H114.827V55.1859Z" fill="white"/>
<path d="M117.959 56.5029H118.415V60.0499H117.959V56.5029ZM118.186 55.0426C118.289 55.0426 118.378 55.0795 118.452 55.1534C118.525 55.2273 118.562 55.3163 118.562 55.4205C118.562 55.5228 118.525 55.611 118.452 55.6848C118.378 55.7587 118.289 55.7957 118.186 55.7957C118.084 55.7957 117.996 55.7587 117.922 55.6848C117.849 55.611 117.812 55.5228 117.812 55.4205C117.812 55.3163 117.849 55.2273 117.922 55.1534C117.996 55.0795 118.084 55.0426 118.186 55.0426Z" fill="white"/>
<path d="M122.377 56.8585C121.997 56.8585 121.671 56.9983 121.399 57.2787C121.126 57.5591 120.99 57.8982 120.99 58.2957C120.99 58.5525 121.051 58.7915 121.176 59.0132C121.3 59.2348 121.468 59.4062 121.68 59.5264C121.891 59.6474 122.124 59.7075 122.377 59.7075C122.629 59.7075 122.862 59.6474 123.073 59.5264C123.285 59.4062 123.453 59.2348 123.577 59.0132C123.702 58.7915 123.763 58.5525 123.763 58.2957C123.763 57.8982 123.627 57.5591 123.353 57.2787C123.079 56.9983 122.754 56.8585 122.377 56.8585ZM122.378 56.4116C122.924 56.4116 123.377 56.6093 123.737 57.0049C124.063 57.3659 124.227 57.7932 124.227 58.2864C124.227 58.7817 124.054 59.2148 123.709 59.5851C123.364 59.9559 122.92 60.141 122.378 60.141C121.833 60.141 121.389 59.9559 121.044 59.5851C120.699 59.2148 120.527 58.7817 120.527 58.2864C120.527 57.795 120.69 57.369 121.016 57.0085C121.375 56.6106 121.83 56.4116 122.378 56.4116Z" fill="white"/>
<path d="M126.406 56.5029H126.862V57.139C127.045 56.8955 127.248 56.7135 127.469 56.5924C127.691 56.4722 127.932 56.4117 128.193 56.4117C128.457 56.4117 128.693 56.4789 128.898 56.6138C129.104 56.7486 129.255 56.9302 129.353 57.1585C129.451 57.3864 129.5 57.7416 129.5 58.2241V60.0499H129.044V58.3581C129.044 57.9495 129.026 57.6766 128.993 57.5395C128.94 57.305 128.838 57.1283 128.689 57.0099C128.538 56.8915 128.343 56.8323 128.101 56.8323C127.825 56.8323 127.578 56.9235 127.36 57.106C127.141 57.289 126.997 57.5146 126.928 57.7843C126.884 57.9602 126.862 58.282 126.862 58.7493V60.0499H126.406V56.5029Z" fill="white"/>
<path d="M33.4372 7.30313L28.9801 9.15527e-05C28.9801 9.15527e-05 24.9337 5.96653 24.2723 9.31228C23.6114 12.6576 25.0588 22.604 25.0588 22.604L25.0054 41.1736L26.1382 40.3137L26.176 22.5332L32.0588 10.2074L33.4372 7.30313Z" fill="black"/>
<path d="M61.2439 22.1789C61.2439 22.1789 60.5536 23.7376 59.1213 24.4693L56.8362 23.7638L45.3769 19.4692L49.7846 34.5275H35.0089C35.0089 34.5275 41.6306 21.2388 40.9692 18.4161C40.3082 15.5933 31.5368 13.6447 31.5368 13.6447L33.0848 10.4329L40.7488 13.8152C40.7488 13.8152 42.2915 12.8742 43.7238 13.3968C45.1566 13.9198 45.2665 14.7561 45.3769 15.5924C45.4868 16.4287 61.2439 22.1789 61.2439 22.1789Z" fill="black"/>
<path d="M59.2201 24.3445V32.2101H60.3221C61.4068 32.2101 62.1937 32.086 62.682 31.8367C63.1711 31.5879 63.5708 31.1691 63.882 30.5811C64.1926 29.9927 64.348 29.2685 64.348 28.4086C64.348 27.0854 63.9777 26.0585 63.2375 25.3286C62.5707 24.6725 61.4998 24.3445 60.0252 24.3445H59.2201ZM56.8638 22.0558H59.675C61.4878 22.0558 62.8338 22.2806 63.715 22.7302C64.5954 23.1788 65.3209 23.9092 65.8911 24.9209C66.4617 25.9321 66.7466 27.1134 66.7466 28.4638C66.7466 29.4243 66.5872 30.3074 66.2681 31.1126C65.949 31.9177 65.5088 32.5858 64.9466 33.1168C64.3849 33.6482 63.7765 34.0154 63.1222 34.2188C62.467 34.4222 61.3325 34.5242 59.7177 34.5242H56.8638V22.0558Z" fill="black"/>
<path d="M69.0181 22.056H75.824V24.3785H71.3744V26.6329H75.824V28.9131H71.3744V32.193H75.824V34.5239H69.0181V22.056Z" fill="black"/>
<path d="M78.0443 22.056H80.3209L85.6558 30.2608V22.056H88.029V34.5239H85.7462L80.4175 26.3449V34.5239H78.0443V22.056Z" fill="black"/>
<path d="M89.6479 22.056H96.5383V24.3954H94.267V34.5239H91.86V24.3954H89.6479V22.056Z" fill="black"/>
<path d="M103.189 25.3616L101.515 29.642H104.851L103.189 25.3616ZM101.97 22.0559H104.377L109.172 34.5238H106.706L105.73 31.9556H100.643L99.6287 34.5238H97.162L101.97 22.0559Z" fill="black"/>
<path d="M111.008 22.056H113.381V32.2611H116.839V34.5239H111.008V22.056Z" fill="black"/>
<path d="M58.2618 40.6349V44.8726L60.4098 44.8904C61.2416 44.8904 61.8572 44.8111 62.2564 44.6527C62.6552 44.4947 62.9664 44.2419 63.1898 43.8938C63.4137 43.5466 63.5254 43.1581 63.5254 42.7286C63.5254 42.3106 63.4119 41.9305 63.1858 41.5887C62.9597 41.2469 62.6624 41.0021 62.2947 40.8552C61.9262 40.7083 61.3151 40.6349 60.4605 40.6349H58.2618ZM57.0159 39.4144H59.4991C60.8838 39.4144 61.8216 39.4714 62.3134 39.5844C63.0536 39.754 63.6554 40.1177 64.1187 40.6749C64.582 41.2322 64.8139 41.918 64.8139 42.733C64.8139 43.4118 64.6537 44.0086 64.335 44.5232C64.0154 45.0386 63.5592 45.4276 62.9659 45.6902C62.3726 45.9532 61.5536 46.0877 60.5081 46.0934L64.9915 51.8827H63.4502L58.9663 46.0934H58.2618V51.8827H57.0159V39.4144Z" fill="white"/>
<path d="M67.4929 39.4143H74.638V40.6348H68.7387V44.5422H74.5868V45.7631H68.7387V50.6622H74.5868V51.8827H67.4929V39.4143Z" fill="white"/>
<path d="M77.9012 50.0178C78.1891 50.0178 78.4348 50.1198 78.6382 50.3232C78.8416 50.5266 78.9436 50.7749 78.9436 51.0687C78.9436 51.3571 78.8416 51.6041 78.6382 51.8102C78.4348 52.0163 78.1891 52.12 77.9012 52.12C77.6132 52.12 77.367 52.0163 77.1636 51.8102C76.9602 51.6041 76.8583 51.3571 76.8583 51.0687C76.8583 50.7749 76.9602 50.5266 77.1636 50.3232C77.367 50.1198 77.6132 50.0178 77.9012 50.0178ZM77.9012 42.4237C78.1891 42.4237 78.4348 42.5252 78.6382 42.7286C78.8416 42.932 78.9436 43.1808 78.9436 43.4745C78.9436 43.7683 78.8416 44.0171 78.6382 44.2205C78.4348 44.4239 78.1891 44.5254 77.9012 44.5254C77.6132 44.5254 77.367 44.4239 77.1636 44.2205C76.9602 44.0171 76.8583 43.7683 76.8583 43.4745C76.8583 43.1861 76.9602 42.9391 77.1636 42.733C77.367 42.5265 77.6132 42.4237 77.9012 42.4237Z" fill="white"/>
<path d="M80.3081 49.5601L81.3674 48.9241C82.1134 50.2972 82.9751 50.984 83.9525 50.984C84.3709 50.984 84.7635 50.8865 85.1307 50.6915C85.4979 50.4966 85.7778 50.2353 85.9701 49.9073C86.162 49.5797 86.2581 49.2325 86.2581 48.8649C86.2581 48.447 86.117 48.037 85.8344 47.636C85.4445 47.0823 84.7323 46.4156 83.6984 45.6358C82.6586 44.8502 82.0115 44.2827 81.7573 43.932C81.3167 43.3444 81.0964 42.7084 81.0964 42.0247C81.0964 41.4826 81.2263 40.9881 81.4858 40.5417C81.7458 40.0953 82.1121 39.7437 82.5834 39.4864C83.0557 39.2296 83.5684 39.1009 84.1221 39.1009C84.7101 39.1009 85.2593 39.2465 85.7703 39.5371C86.2821 39.8287 86.8234 40.3637 87.394 41.1435L86.3769 41.9148C85.9078 41.2935 85.5081 40.8835 85.177 40.6859C84.8467 40.4878 84.4866 40.3895 84.0967 40.3895C83.5938 40.3895 83.1825 40.5417 82.8634 40.847C82.5438 41.1519 82.3845 41.5276 82.3845 41.974C82.3845 42.2451 82.441 42.5081 82.554 42.7627C82.6671 43.0168 82.8736 43.2937 83.1732 43.5932C83.337 43.7512 83.8737 44.1665 84.7835 44.8391C85.8624 45.6358 86.603 46.3448 87.0041 46.9666C87.4051 47.5879 87.6058 48.2124 87.6058 48.8395C87.6058 49.7435 87.2622 50.5291 86.5759 51.1958C85.8891 51.8626 85.0546 52.196 84.0714 52.196C83.3143 52.196 82.6275 51.9939 82.0115 51.5902C81.3955 51.186 80.828 50.5095 80.3081 49.5601Z" fill="white"/>
<path d="M96.2342 40.3128C95.3119 40.3128 94.4373 40.5531 93.6108 41.0338C92.7847 41.5145 92.1393 42.1621 91.6755 42.9762C91.2113 43.7907 90.979 44.6987 90.979 45.6997C90.979 47.1809 91.4931 48.4321 92.5199 49.4527C93.5472 50.4737 94.7854 50.9842 96.2342 50.9842C97.2022 50.9842 98.0978 50.7492 98.9212 50.2801C99.7446 49.8105 100.387 49.1687 100.848 48.3542C101.309 47.5401 101.54 46.6353 101.54 45.64C101.54 44.6502 101.309 43.7551 100.848 42.9553C100.387 42.155 99.7375 41.5145 98.8998 41.0338C98.0622 40.5531 97.1738 40.3128 96.2342 40.3128ZM96.179 39.1008C98.0675 39.1008 99.648 39.7306 100.92 40.9906C102.193 42.2507 102.828 43.8023 102.828 45.6445C102.828 47.4694 102.194 49.0178 100.924 50.289C99.6551 51.5606 98.1071 52.1958 96.2805 52.1958C94.432 52.1958 92.8711 51.5629 91.599 50.2975C90.3274 49.0316 89.6909 47.5001 89.6909 45.7032C89.6909 44.5055 89.9806 43.3955 90.5601 42.3726C91.1401 41.3498 91.9297 40.5487 92.9307 39.9696C93.9313 39.3905 95.0142 39.1008 96.179 39.1008Z" fill="white"/>
<path d="M105.37 39.4143H106.617V46.9408C106.617 47.8337 106.634 48.3905 106.667 48.6108C106.73 49.1026 106.873 49.5134 107.1 49.8441C107.326 50.1748 107.673 50.4517 108.142 50.6747C108.611 50.8981 109.083 51.0094 109.557 51.0094C109.97 51.0094 110.366 50.9217 110.744 50.7468C111.123 50.5714 111.439 50.3284 111.693 50.0177C111.947 49.7071 112.134 49.331 112.253 48.8903C112.337 48.5739 112.38 47.924 112.38 46.9408V39.4143H113.626V46.9408C113.626 48.054 113.517 48.9544 113.299 49.6407C113.082 50.3275 112.647 50.9244 111.994 51.4331C111.342 51.9419 110.552 52.196 109.625 52.196C108.62 52.196 107.758 51.9561 107.04 51.4758C106.323 50.9956 105.843 50.3596 105.6 49.5682C105.447 49.0826 105.37 48.2067 105.37 46.9408V39.4143Z" fill="white"/>
<path d="M118.008 40.6349V44.8726L120.156 44.8904C120.988 44.8904 121.603 44.8111 122.002 44.6527C122.401 44.4947 122.712 44.2419 122.936 43.8938C123.16 43.5466 123.271 43.1581 123.271 42.7286C123.271 42.3106 123.158 41.9305 122.932 41.5887C122.706 41.2469 122.409 41.0021 122.041 40.8552C121.673 40.7083 121.061 40.6349 120.206 40.6349H118.008ZM116.762 39.4144H119.245C120.63 39.4144 121.568 39.4714 122.06 39.5844C122.8 39.754 123.401 40.1177 123.865 40.6749C124.328 41.2322 124.56 41.918 124.56 42.733C124.56 43.4118 124.4 44.0086 124.081 44.5232C123.762 45.0386 123.305 45.4276 122.712 45.6902C122.119 45.9532 121.3 46.0877 120.254 46.0934L124.738 51.8827H123.197L118.712 46.0934H118.008V51.8827H116.762V39.4144Z" fill="white"/>
<path d="M138.842 41.7284L137.859 42.4824C137.316 41.7761 136.665 41.2411 135.905 40.8765C135.145 40.5125 134.31 40.3295 133.4 40.3295C132.406 40.3295 131.485 40.569 130.637 41.0461C129.79 41.5237 129.133 42.1646 128.667 42.9703C128.2 43.7754 127.967 44.6807 127.967 45.6866C127.967 47.2066 128.488 48.4751 129.531 49.4922C130.574 50.5096 131.889 51.0179 133.477 51.0179C135.223 51.0179 136.683 50.3343 137.859 48.967L138.842 49.7125C138.22 50.5039 137.445 51.1154 136.515 51.548C135.586 51.9798 134.547 52.1961 133.4 52.1961C131.219 52.1961 129.499 51.4701 128.239 50.0178C127.182 48.7916 126.653 47.3112 126.653 45.5767C126.653 43.7514 127.294 42.2158 128.573 40.97C129.854 39.7238 131.456 39.1011 133.384 39.1011C134.547 39.1011 135.598 39.3312 136.537 39.7914C137.474 40.2525 138.243 40.8979 138.842 41.7284Z" fill="white"/>
<path d="M141.351 39.4143H148.496V40.6348H142.597V44.5422H148.445V45.7631H142.597V50.6622H148.445V51.8827H141.351V39.4143Z" fill="white"/>
<path d="M35.4418 54.789C35.4418 54.789 36.3925 52.4251 37.3316 52.4456C38.7875 52.4776 40.9111 58.4961 42.1462 58.4418C43.3813 58.3875 46.4373 51.4316 46.8926 46.107C47.3484 40.7829 46.5428 38.6415 44.8408 38.2441C43.1392 37.8466 39.9381 40.9831 36.2331 41.0548C32.5282 41.1269 31.0777 39.3523 28.3417 39.858C26.0299 40.2848 27.3999 45.957 28.3016 48.6716C29.1384 51.19 33.7433 53.4595 35.4574 52.3721C37.1714 51.2852 38.5921 53.4978 38.5921 53.4978C38.5921 53.4978 37.3147 52.5479 36.7597 52.8942C36.1268 53.289 34.994 55.8821 34.994 55.8821C34.994 55.8821 33.5243 61.9077 31.2383 62.1205C28.8829 62.3395 25.283 56.9753 24.1004 50.6452C22.9178 44.3146 22.9752 37.349 26.6232 37.0508C30.2712 36.753 32.2416 40.2234 36.1855 39.6866C40.1295 39.1503 42.0919 36.5011 46.1498 36.3662C50.2081 36.2309 50.278 41.9939 50.0149 45.3708C49.7519 48.7478 44.5946 60.9713 42.1217 61.3995C39.6488 61.8281 37.9103 53.4991 37.2417 53.5222C36.1673 53.5596 35.4418 54.789 35.4418 54.789Z" fill="white"/>
<path d="M25.037 37.7937L25.0236 34.5276H26.1956L26.1439 37.1349L25.037 37.7937Z" fill="white"/>
</g>
</g>
<defs>
<clipPath id="clip0_1_364">
<rect width="164.238" height="64.7936" fill="white" transform="translate(0.380859)"/>
</clipPath>
</defs>
</svg>
