<svg aria-hidden="true" xmlns="http://www.w3.org/2000/svg" xmlns:xlink="http://www.w3.org/1999/xlink"><symbol viewBox="0 0 42 42" fill="none" id="icon-close" xmlns="http://www.w3.org/2000/svg">
<path d="M42 2.115L23.115 21L42 39.885L39.885 42L21 23.115L2.115 42L0 39.885L18.885 21L0 2.115L2.115 0L21 18.885L39.885 0L42 2.115Z" fill="currentColor"/>
</symbol><symbol viewBox="0 0 16 13" fill="none" id="icon-tg" xmlns="http://www.w3.org/2000/svg">
<path d="M14.3712 0.380529L1.43208 5.37013C0.549024 5.72485 0.554131 6.21744 1.27003 6.43715L4.59207 7.47341L12.2782 2.62392C12.6417 2.40281 12.9737 2.52178 12.7008 2.76404L6.47346 8.38419L6.24429 11.8091C6.58002 11.8091 6.7282 11.6552 6.91645 11.4734L8.53 9.90435L11.8864 12.3834C12.5052 12.7243 12.9497 12.5491 13.1037 11.8105L15.3068 1.42709C15.5324 0.522896 14.9616 0.113464 14.3712 0.380529Z" fill="currentColor"/>
</symbol><symbol viewBox="0 0 16 16" id="icon-wh" xmlns="http://www.w3.org/2000/svg"><path fill="currentColor" d="M13.601 2.326A7.85 7.85 0 0 0 7.994 0C3.627 0 .068 3.558.064 7.926c0 1.399.366 2.76 1.057 3.965L0 16l4.204-1.102a7.9 7.9 0 0 0 3.79.965h.004c4.368 0 7.926-3.558 7.93-7.93A7.9 7.9 0 0 0 13.6 2.326zM7.994 14.521a6.6 6.6 0 0 1-3.356-.92l-.24-.144l-2.494.654l.666-2.433l-.156-.251a6.56 6.56 0 0 1-1.007-3.505c0-3.626 2.957-6.584 6.591-6.584a6.56 6.56 0 0 1 4.66 1.931a6.56 6.56 0 0 1 1.928 4.66c-.004 3.639-2.961 6.592-6.592 6.592m3.615-4.934c-.197-.099-1.17-.578-1.353-.646c-.182-.065-.315-.099-.445.099c-.133.197-.513.646-.627.775c-.114.133-.232.148-.43.05c-.197-.1-.836-.308-1.592-.985c-.59-.525-.985-1.175-1.103-1.372c-.114-.198-.011-.304.088-.403c.087-.088.197-.232.296-.346c.1-.114.133-.198.198-.33c.065-.134.034-.248-.015-.347c-.05-.099-.445-1.076-.612-1.47c-.16-.389-.323-.335-.445-.34c-.114-.007-.247-.007-.38-.007a.73.73 0 0 0-.529.247c-.182.198-.691.677-.691 1.654s.71 1.916.81 2.049c.098.133 1.394 2.132 3.383 2.992c.47.205.84.326 1.129.418c.475.152.904.129 1.246.08c.38-.058 1.171-.48 1.338-.943c.164-.464.164-.86.114-.943c-.049-.084-.182-.133-.38-.232"/></symbol><symbol viewBox="0 0 18 14" fill="none" id="icon-yt" xmlns="http://www.w3.org/2000/svg">
<path d="M15.6335 2.83615C15.5682 2.58122 15.3838 2.38878 15.1725 2.32945C14.7971 2.22476 12.9747 1.98455 9.12246 1.98455C5.27026 1.98455 3.44817 2.22484 3.07125 2.32971C2.86203 2.38792 2.67756 2.58027 2.61147 2.83615C2.51833 3.19945 2.2741 4.72047 2.2741 7.12082C2.2741 9.52118 2.51833 11.0422 2.61173 11.4065C2.6767 11.6605 2.86118 11.8529 3.07151 11.9119C3.44817 12.0168 5.27026 12.2571 9.12246 12.2571C12.9747 12.2571 14.7971 12.0169 15.1736 11.9119C15.3829 11.8537 15.5674 11.6614 15.6335 11.4055C15.7266 11.0422 15.9708 9.51775 15.9708 7.12082C15.9708 4.7239 15.7266 3.19945 15.6335 2.83615ZM17.2919 2.41103C17.6829 3.93634 17.6829 7.12082 17.6829 7.12082C17.6829 7.12082 17.6829 10.3053 17.2919 11.8306C17.074 12.6742 16.4382 13.3373 15.6323 13.5614C14.1698 13.9692 9.12246 13.9692 9.12246 13.9692C9.12246 13.9692 4.07813 13.9692 2.61258 13.5614C1.80371 13.3342 1.16792 12.6711 0.952967 11.8306C0.562011 10.3053 0.562012 7.12082 0.562012 7.12082C0.562012 7.12082 0.562011 3.93634 0.952967 2.41103C1.17092 1.5674 1.80662 0.904394 2.61258 0.680281C4.07813 0.272461 9.12246 0.272461 9.12246 0.272461C9.12246 0.272461 14.1698 0.272461 15.6323 0.680281C16.4412 0.907476 17.077 1.57057 17.2919 2.41103ZM7.41037 10.117V4.12467L12.5466 7.12082L7.41037 10.117Z" fill="currentColor"/>
</symbol></svg>