<svg aria-hidden="true" xmlns="http://www.w3.org/2000/svg" xmlns:xlink="http://www.w3.org/1999/xlink"><symbol viewBox="0 0 8 16" fill="none" id="icon-arrow-next" xmlns="http://www.w3.org/2000/svg">
<path d="M8.00427 8.44242C8.00539 8.63889 7.97189 8.83365 7.90568 9.01554C7.83947 9.19743 7.74186 9.36287 7.61845 9.50237L2.29207 15.4739C2.16791 15.6131 2.02049 15.7235 1.85821 15.7989C1.69594 15.8742 1.52199 15.913 1.34629 15.913C1.1706 15.913 0.996609 15.8742 0.83425 15.7989C0.67189 15.7235 0.524343 15.6131 0.400033 15.4739C0.275723 15.3347 0.177085 15.1695 0.10975 14.9876C0.0424146 14.8057 0.00770254 14.6108 0.00759365 14.414C0.00748476 14.2171 0.0419812 14.0222 0.109115 13.8403C0.176249 13.6585 0.274705 13.4932 0.398861 13.354L4.80646 8.44241L0.566633 3.51588C0.430264 3.37855 0.320635 3.21119 0.244602 3.02426C0.168569 2.83733 0.127769 2.63486 0.124752 2.42951C0.121734 2.22415 0.156564 2.02034 0.227066 1.83081C0.297567 1.64128 0.402223 1.47011 0.534487 1.32801C0.66675 1.18591 0.823776 1.07593 0.995745 1.00495C1.16771 0.933974 1.35092 0.903527 1.53392 0.915513C1.71692 0.927498 1.89576 0.981658 2.05927 1.07461C2.22278 1.16755 2.36743 1.29729 2.48418 1.4557L7.63063 7.42725C7.8657 7.70026 7.99929 8.06322 8.00427 8.44242Z" fill="currentColor"/>
</symbol><symbol viewBox="0 0 8 16" fill="none" id="icon-arrow-prev" xmlns="http://www.w3.org/2000/svg">
<path d="M0.00415633 8.44254C0.00303382 8.63901 0.0365371 8.83378 0.102744 9.01567C0.168951 9.19756 0.266559 9.36299 0.389972 9.50249L5.71635 15.474C5.84051 15.6132 5.98793 15.7236 6.15021 15.799C6.31249 15.8743 6.48644 15.9131 6.66213 15.9131C6.83782 15.9131 7.01181 15.8743 7.17417 15.799C7.33653 15.7236 7.48408 15.6132 7.60839 15.474C7.7327 15.3348 7.83134 15.1696 7.89867 14.9877C7.96601 14.8059 8.00072 14.6109 8.00083 14.4141C8.00094 14.2172 7.96644 14.0223 7.89931 13.8404C7.83217 13.6586 7.73372 13.4933 7.60956 13.3541L3.20197 8.44254L7.44179 3.516C7.57816 3.37867 7.68779 3.21131 7.76382 3.02438C7.83985 2.83745 7.88065 2.63498 7.88367 2.42963C7.88669 2.22427 7.85186 2.02046 7.78136 1.83093C7.71086 1.6414 7.6062 1.47023 7.47394 1.32813C7.34167 1.18603 7.18465 1.07605 7.01268 1.00507C6.84071 0.934095 6.6575 0.903648 6.4745 0.915633C6.29151 0.927618 6.11266 0.981778 5.94915 1.07473C5.78565 1.16767 5.64099 1.29741 5.52424 1.45582L0.377795 7.42737C0.142718 7.70038 0.00913072 8.06334 0.00415633 8.44254Z" fill="currentColor"/>
</symbol><symbol viewBox="0 0 42 42" fill="none" id="icon-close" xmlns="http://www.w3.org/2000/svg">
<path d="M42 2.115L23.115 21L42 39.885L39.885 42L21 23.115L2.115 42L0 39.885L18.885 21L0 2.115L2.115 0L21 18.885L39.885 0L42 2.115Z" fill="currentColor"/>
</symbol><symbol viewBox="0 0 24 28" fill="none" id="icon-play" xmlns="http://www.w3.org/2000/svg">
<path d="M3.60716 2.68692C2.27391 1.93334 0.623047 2.89656 0.623047 4.42804V23.5724C0.623047 25.1039 2.27391 26.0671 3.60716 25.3136L20.5426 15.7414C21.8971 14.9758 21.8971 13.0247 20.5426 12.2591L3.60716 2.68692Z" fill="currentColor"/>
<path d="M3.60716 2.68692C2.27391 1.93334 0.623047 2.89656 0.623047 4.42804V23.5724C0.623047 25.1039 2.27391 26.0671 3.60716 25.3136L20.5426 15.7414C21.8971 14.9758 21.8971 13.0247 20.5426 12.2591L3.60716 2.68692Z" fill="currentColor"/>
<defs>
<linearGradient id="dpaint0_linear_2011_4" x1="0.623047" y1="2.00024" x2="20.623" y2="34.0002" gradientUnits="userSpaceOnUse">
<stop stop-color="white"/>
<stop offset="1" stop-color="white" stop-opacity="0"/>
</linearGradient>
<linearGradient id="dpaint1_linear_2011_4" x1="-11.377" y1="-10.9998" x2="12.623" y2="19.5002" gradientUnits="userSpaceOnUse">
<stop stop-color="white" stop-opacity="0"/>
<stop offset="1" stop-color="white"/>
</linearGradient>
</defs>
</symbol><symbol viewBox="0 0 20 21" fill="none" id="icon-plus" xmlns="http://www.w3.org/2000/svg">
<path d="M3.33331 10.4999H16.6666M9.99998 3.83325V17.1666" stroke="currentColor" stroke-width="1.58333" stroke-linecap="round" stroke-linejoin="round"/>
</symbol><symbol viewBox="0 0 31 32" fill="none" id="icon-tel" xmlns="http://www.w3.org/2000/svg">
<path d="M9.55972 16.0378C10.8143 18.6287 12.9094 20.7184 15.5035 21.9663C15.6948 22.057 15.9065 22.0962 16.1176 22.0801C16.3287 22.0641 16.532 21.9934 16.7075 21.8749L20.5176 19.3297C20.6859 19.2156 20.8805 19.1459 21.083 19.1273C21.2856 19.1086 21.4895 19.1416 21.6759 19.2231L28.8084 22.2864C29.0522 22.3879 29.2559 22.5666 29.388 22.7952C29.5202 23.0238 29.5736 23.2895 29.54 23.5514C29.3139 25.3158 28.4527 26.9374 27.1174 28.1128C25.7822 29.2881 24.0644 29.9367 22.2855 29.9371C16.7884 29.9371 11.5164 27.7534 7.62928 23.8663C3.74221 19.9792 1.55847 14.7072 1.55847 9.21008C1.55887 7.4312 2.20743 5.71343 3.38279 4.37817C4.55816 3.04292 6.17978 2.18168 7.94423 1.95561C8.20612 1.92197 8.4718 1.97536 8.70037 2.10754C8.92895 2.23973 9.10773 2.44339 9.20918 2.68716L12.2725 9.83494C12.3522 10.0184 12.3855 10.2185 12.3696 10.4179C12.3536 10.6172 12.2889 10.8096 12.1811 10.978L9.63592 14.849C9.52261 15.0241 9.4561 15.2254 9.44276 15.4335C9.42942 15.6416 9.46969 15.8497 9.55972 16.0378Z" stroke="currentColor" stroke-width="2.44591" stroke-linecap="round" stroke-linejoin="round"/>
</symbol><symbol viewBox="0 0 16 13" fill="none" id="icon-tg" xmlns="http://www.w3.org/2000/svg">
<path d="M14.3712 0.380529L1.43208 5.37013C0.549024 5.72485 0.554131 6.21744 1.27003 6.43715L4.59207 7.47341L12.2782 2.62392C12.6417 2.40281 12.9737 2.52178 12.7008 2.76404L6.47346 8.38419L6.24429 11.8091C6.58002 11.8091 6.7282 11.6552 6.91645 11.4734L8.53 9.90435L11.8864 12.3834C12.5052 12.7243 12.9497 12.5491 13.1037 11.8105L15.3068 1.42709C15.5324 0.522896 14.9616 0.113464 14.3712 0.380529Z" fill="currentColor"/>
</symbol><symbol viewBox="0 0 16 16" id="icon-wh" xmlns="http://www.w3.org/2000/svg"><path fill="currentColor" d="M13.601 2.326A7.85 7.85 0 0 0 7.994 0C3.627 0 .068 3.558.064 7.926c0 1.399.366 2.76 1.057 3.965L0 16l4.204-1.102a7.9 7.9 0 0 0 3.79.965h.004c4.368 0 7.926-3.558 7.93-7.93A7.9 7.9 0 0 0 13.6 2.326zM7.994 14.521a6.6 6.6 0 0 1-3.356-.92l-.24-.144l-2.494.654l.666-2.433l-.156-.251a6.56 6.56 0 0 1-1.007-3.505c0-3.626 2.957-6.584 6.591-6.584a6.56 6.56 0 0 1 4.66 1.931a6.56 6.56 0 0 1 1.928 4.66c-.004 3.639-2.961 6.592-6.592 6.592m3.615-4.934c-.197-.099-1.17-.578-1.353-.646c-.182-.065-.315-.099-.445.099c-.133.197-.513.646-.627.775c-.114.133-.232.148-.43.05c-.197-.1-.836-.308-1.592-.985c-.59-.525-.985-1.175-1.103-1.372c-.114-.198-.011-.304.088-.403c.087-.088.197-.232.296-.346c.1-.114.133-.198.198-.33c.065-.134.034-.248-.015-.347c-.05-.099-.445-1.076-.612-1.47c-.16-.389-.323-.335-.445-.34c-.114-.007-.247-.007-.38-.007a.73.73 0 0 0-.529.247c-.182.198-.691.677-.691 1.654s.71 1.916.81 2.049c.098.133 1.394 2.132 3.383 2.992c.47.205.84.326 1.129.418c.475.152.904.129 1.246.08c.38-.058 1.171-.48 1.338-.943c.164-.464.164-.86.114-.943c-.049-.084-.182-.133-.38-.232"/></symbol><symbol viewBox="0 0 18 14" fill="none" id="icon-yt" xmlns="http://www.w3.org/2000/svg">
<path d="M15.6335 2.83615C15.5682 2.58122 15.3838 2.38878 15.1725 2.32945C14.7971 2.22476 12.9747 1.98455 9.12246 1.98455C5.27026 1.98455 3.44817 2.22484 3.07125 2.32971C2.86203 2.38792 2.67756 2.58027 2.61147 2.83615C2.51833 3.19945 2.2741 4.72047 2.2741 7.12082C2.2741 9.52118 2.51833 11.0422 2.61173 11.4065C2.6767 11.6605 2.86118 11.8529 3.07151 11.9119C3.44817 12.0168 5.27026 12.2571 9.12246 12.2571C12.9747 12.2571 14.7971 12.0169 15.1736 11.9119C15.3829 11.8537 15.5674 11.6614 15.6335 11.4055C15.7266 11.0422 15.9708 9.51775 15.9708 7.12082C15.9708 4.7239 15.7266 3.19945 15.6335 2.83615ZM17.2919 2.41103C17.6829 3.93634 17.6829 7.12082 17.6829 7.12082C17.6829 7.12082 17.6829 10.3053 17.2919 11.8306C17.074 12.6742 16.4382 13.3373 15.6323 13.5614C14.1698 13.9692 9.12246 13.9692 9.12246 13.9692C9.12246 13.9692 4.07813 13.9692 2.61258 13.5614C1.80371 13.3342 1.16792 12.6711 0.952967 11.8306C0.562011 10.3053 0.562012 7.12082 0.562012 7.12082C0.562012 7.12082 0.562011 3.93634 0.952967 2.41103C1.17092 1.5674 1.80662 0.904394 2.61258 0.680281C4.07813 0.272461 9.12246 0.272461 9.12246 0.272461C9.12246 0.272461 14.1698 0.272461 15.6323 0.680281C16.4412 0.907476 17.077 1.57057 17.2919 2.41103ZM7.41037 10.117V4.12467L12.5466 7.12082L7.41037 10.117Z" fill="currentColor"/>
</symbol></svg>