<svg width="165" height="65" viewBox="0 0 165 65" fill="none" xmlns="http://www.w3.org/2000/svg">
<g clip-path="url(#clip0_1_234)">
<path d="M-6.10352e-05 64.7534H164.238V34.506H-6.10352e-05V64.7534Z" fill="white"/>
<mask id="mask0_1_234" style="mask-type:luminance" maskUnits="userSpaceOnUse" x="0" y="0" width="165" height="65">
<path d="M-6.10352e-05 1.52588e-05H164.238V64.7534H-6.10352e-05V1.52588e-05Z" fill="white"/>
</mask>
<g mask="url(#mask0_1_234)">
<path d="M58.2353 56.8557L57.9415 57.1586C57.6976 56.9216 57.459 56.8037 57.2258 56.8037C57.0776 56.8037 56.9503 56.8522 56.8453 56.95C56.7393 57.0479 56.6868 57.1618 56.6868 57.2921C56.6868 57.4073 56.73 57.5167 56.8172 57.6213C56.9045 57.7276 57.0874 57.8526 57.366 57.9958C57.7061 58.1719 57.9366 58.3414 58.059 58.5042C58.1783 58.6692 58.2384 58.8547 58.2384 59.0611C58.2384 59.352 58.136 59.5989 57.9313 59.8008C57.7265 60.0028 57.4711 60.1038 57.1644 60.1038C56.9596 60.1038 56.7643 60.0593 56.5782 59.9703C56.3917 59.8814 56.2382 59.7581 56.1158 59.602L56.4028 59.276C56.6361 59.5388 56.8835 59.6705 57.1448 59.6705C57.3277 59.6705 57.4835 59.6118 57.6121 59.4948C57.7408 59.3774 57.8049 59.239 57.8049 59.0807C57.8049 58.9504 57.7626 58.8343 57.6771 58.7324C57.5926 58.6323 57.4007 58.5064 57.1025 58.3543C56.7821 58.1893 56.5644 58.0265 56.4487 57.8659C56.3338 57.7049 56.276 57.5212 56.276 57.3148C56.276 57.0457 56.3681 56.8219 56.5519 56.6435C56.7358 56.4656 56.9677 56.3767 57.249 56.3767C57.5757 56.3767 57.9041 56.5363 58.2353 56.8557Z" fill="#202020"/>
<path d="M60.3757 56.4677H60.832V57.0802C60.9913 56.8543 61.1538 56.6892 61.3216 56.5852C61.5526 56.4459 61.7947 56.3765 62.0497 56.3765C62.2211 56.3765 62.3849 56.4103 62.5389 56.4775C62.6933 56.5451 62.8197 56.6345 62.9176 56.7462C63.0156 56.8583 63.1001 57.0184 63.1722 57.227C63.324 56.949 63.5136 56.7377 63.7415 56.5932C63.9689 56.449 64.2137 56.3765 64.4764 56.3765C64.7216 56.3765 64.9379 56.4388 65.1253 56.5625C65.3127 56.6861 65.4515 56.8587 65.5428 57.0802C65.634 57.3018 65.6794 57.634 65.6794 58.0771V60.0125H65.2134V58.0771C65.2134 57.6972 65.1867 57.4361 65.1324 57.2933C65.0777 57.1514 64.9855 57.0366 64.8547 56.9499C64.7234 56.8632 64.5667 56.8196 64.3851 56.8196C64.1643 56.8196 63.9623 56.8845 63.7789 57.0148C63.5955 57.1452 63.462 57.3191 63.3774 57.5362C63.2933 57.7537 63.251 58.1162 63.251 58.6246V60.0125H62.7948V58.1981C62.7948 57.7701 62.7681 57.4792 62.7151 57.3262C62.6613 57.1732 62.5687 57.0509 62.4361 56.9584C62.3034 56.8663 62.1459 56.8196 61.9629 56.8196C61.7528 56.8196 61.5552 56.8832 61.3718 57.0104C61.1876 57.1372 61.0523 57.3084 60.9641 57.5233C60.8765 57.7381 60.832 58.0677 60.832 58.5108V60.0125H60.3757V56.4677Z" fill="#202020"/>
<path d="M67.9077 56.4677H68.364V60.0125H67.9077V56.4677ZM68.1343 55.0083C68.238 55.0083 68.327 55.0452 68.4005 55.119C68.4739 55.1929 68.5108 55.2819 68.5108 55.3859C68.5108 55.4882 68.4739 55.5763 68.4005 55.6502C68.327 55.724 68.238 55.7609 68.1343 55.7609C68.0324 55.7609 67.9447 55.724 67.8712 55.6502C67.7974 55.5763 67.7609 55.4882 67.7609 55.3859C67.7609 55.2819 67.7974 55.1929 67.8712 55.119C67.9447 55.0452 68.0324 55.0083 68.1343 55.0083Z" fill="#202020"/>
<path d="M70.5798 55.0995H71.036V60.0125H70.5798V55.0995Z" fill="#202020"/>
<path d="M76.3062 57.8817C76.2453 57.6384 76.1567 57.4444 76.0401 57.2985C75.9239 57.1531 75.7699 57.0361 75.5781 56.9467C75.3871 56.8577 75.1855 56.8132 74.9745 56.8132C74.6265 56.8132 74.3274 56.9253 74.0768 57.1491C73.8943 57.3119 73.7563 57.5561 73.6624 57.8817H76.3062ZM76.3062 58.8362L76.6908 59.0386C76.5648 59.2859 76.4188 59.4857 76.2537 59.6378C76.0886 59.7899 75.9025 59.9056 75.6956 59.9848C75.4891 60.0639 75.2554 60.1035 74.9941 60.1035C74.4155 60.1035 73.9628 59.914 73.637 59.535C73.3108 59.1561 73.1474 58.7277 73.1474 58.25C73.1474 57.8003 73.2854 57.3995 73.5618 57.0476C73.9117 56.6002 74.3808 56.3764 74.9679 56.3764C75.5732 56.3764 76.0557 56.6059 76.4166 57.0641C76.6734 57.3879 76.8038 57.7918 76.8083 58.2762H73.617C73.6259 58.6877 73.7568 59.0253 74.0118 59.2886C74.2664 59.5519 74.5806 59.6836 74.9549 59.6836C75.1357 59.6836 75.3115 59.652 75.4819 59.5893C75.6528 59.5266 75.7979 59.4434 75.9181 59.3393C76.0374 59.2357 76.1669 59.068 76.3062 58.8362Z" fill="#202020"/>
<path d="M84.0105 56.8165C83.6158 56.8165 83.2833 56.9543 83.014 57.2297C82.7434 57.5055 82.609 57.848 82.609 58.2577C82.609 58.5272 82.6686 58.7692 82.7897 58.9836C82.9094 59.1984 83.0816 59.3688 83.3064 59.4947C83.5312 59.6206 83.7675 59.6833 84.0172 59.6833C84.262 59.6833 84.4926 59.6201 84.708 59.4929C84.9239 59.3657 85.0957 59.1887 85.2239 58.9609C85.3516 58.7332 85.4157 58.4943 85.4157 58.2448C85.4157 57.9934 85.3525 57.7546 85.2252 57.529C85.0983 57.3035 84.9279 57.1283 84.7129 57.0037C84.4988 56.8787 84.2638 56.8165 84.0105 56.8165ZM82.1848 56.4677H82.6414V57.1194C82.8217 56.8716 83.0287 56.6861 83.2632 56.5625C83.4982 56.4384 83.76 56.3765 84.0484 56.3765C84.5518 56.3765 84.9831 56.558 85.3409 56.9205C85.6992 57.2835 85.8781 57.7199 85.8781 58.2305C85.8781 58.7518 85.701 59.1944 85.3463 59.5578C84.9906 59.9217 84.5629 60.1036 84.0613 60.1036C83.7787 60.1036 83.5196 60.0449 83.2828 59.9275C83.046 59.8101 82.8324 59.6357 82.6414 59.4031V61.3091H82.1848V56.4677Z" fill="#202020"/>
<path d="M87.8945 56.4677H88.3605V56.9859C88.4994 56.7818 88.6463 56.6287 88.8007 56.5282C88.9552 56.4268 89.1159 56.3765 89.2832 56.3765C89.4092 56.3765 89.544 56.417 89.6874 56.4971L89.4497 56.8818C89.354 56.8405 89.2734 56.8196 89.208 56.8196C89.0558 56.8196 88.9093 56.8823 88.7682 57.0068C88.6272 57.1318 88.5194 57.3258 88.4456 57.5887C88.389 57.7906 88.3605 58.1989 88.3605 58.8132V60.0125H87.8945V56.4677Z" fill="#202020"/>
<path d="M93.0618 56.823C92.6821 56.823 92.3563 56.9627 92.0839 57.2429C91.8106 57.5231 91.6749 57.8621 91.6749 58.2593C91.6749 58.516 91.7367 58.7548 91.8614 58.9764C91.9855 59.1979 92.1533 59.3691 92.3652 59.4892C92.5766 59.6102 92.809 59.6703 93.0618 59.6703C93.3146 59.6703 93.5469 59.6102 93.7588 59.4892C93.9702 59.3691 94.138 59.1979 94.2622 58.9764C94.3868 58.7548 94.4491 58.516 94.4491 58.2593C94.4491 57.8621 94.312 57.5231 94.0383 57.2429C93.7646 56.9627 93.4392 56.823 93.0618 56.823ZM93.0636 56.3764C93.6097 56.3764 94.0628 56.5739 94.4224 56.9694C94.7487 57.3301 94.9116 57.7571 94.9116 58.25C94.9116 58.7451 94.7398 59.1779 94.3944 59.5479C94.0494 59.9185 93.6057 60.1035 93.0636 60.1035C92.5192 60.1035 92.0741 59.9185 91.7296 59.5479C91.3842 59.1779 91.212 58.7451 91.212 58.25C91.212 57.7589 91.3753 57.3332 91.7016 56.9729C92.0612 56.5752 92.5148 56.3764 93.0636 56.3764Z" fill="#202020"/>
<path d="M98.808 56.8166C98.5543 56.8166 98.3193 56.8789 98.1048 57.0038C97.8898 57.1284 97.7189 57.3037 97.592 57.5292C97.4647 57.7547 97.4015 57.9936 97.4015 58.2449C97.4015 58.4944 97.4652 58.7333 97.5933 58.961C97.7215 59.1888 97.8933 59.3658 98.1097 59.493C98.3255 59.6202 98.5574 59.6834 98.8044 59.6834C99.0541 59.6834 99.2909 59.6207 99.5148 59.4948C99.7382 59.3689 99.9105 59.1986 100.03 58.9837C100.151 58.7693 100.211 58.5273 100.211 58.2578C100.211 57.8481 100.077 57.5056 99.8059 57.2298C99.5357 56.9545 99.2028 56.8166 98.808 56.8166ZM100.632 55.0996V60.0126H100.182V59.4032C99.9906 59.6358 99.7761 59.8102 99.5384 59.9276C99.2998 60.045 99.0399 60.1038 98.7577 60.1038C98.2552 60.1038 97.8266 59.9218 97.4714 59.558C97.1158 59.1946 96.9382 58.752 96.9382 58.2306C96.9382 57.72 97.1175 57.2836 97.4763 56.9207C97.8346 56.5581 98.2663 56.3767 98.7706 56.3767C99.0617 56.3767 99.3252 56.4385 99.5606 56.5626C99.7965 56.6863 100.004 56.8717 100.182 57.1195V55.0996H100.632Z" fill="#202020"/>
<path d="M102.942 56.4678H103.398V58.123C103.398 58.5269 103.42 58.8049 103.464 58.957C103.529 59.1741 103.654 59.3458 103.838 59.4717C104.022 59.5976 104.241 59.6607 104.495 59.6607C104.75 59.6607 104.966 59.5993 105.144 59.4766C105.322 59.3538 105.444 59.1928 105.511 58.9931C105.557 58.8561 105.58 58.566 105.58 58.123V56.4678H106.046V58.2075C106.046 58.6964 105.989 59.0647 105.874 59.3124C105.76 59.5598 105.589 59.7537 105.36 59.8934C105.13 60.0339 104.843 60.1038 104.497 60.1038C104.152 60.1038 103.863 60.0339 103.632 59.8934C103.4 59.7537 103.227 59.558 103.113 59.3071C103 59.0562 102.942 58.679 102.942 58.175V56.4678Z" fill="#202020"/>
<path d="M111.837 57.204L111.475 57.4291C111.163 57.0141 110.736 56.8064 110.196 56.8064C109.763 56.8064 109.405 56.9456 109.119 57.2231C108.834 57.5007 108.692 57.8383 108.692 58.2351C108.692 58.4931 108.757 58.7364 108.888 58.9641C109.02 59.1923 109.2 59.3689 109.429 59.4944C109.658 59.6207 109.915 59.6834 110.199 59.6834C110.719 59.6834 111.145 59.4757 111.475 59.0611L111.837 59.2991C111.667 59.554 111.44 59.7524 111.154 59.8929C110.868 60.033 110.543 60.1038 110.178 60.1038C109.617 60.1038 109.152 59.9254 108.783 59.5691C108.413 59.2132 108.228 58.78 108.228 58.2698C108.228 57.9264 108.315 57.6075 108.488 57.313C108.66 57.019 108.898 56.789 109.2 56.624C109.502 56.459 109.84 56.3767 110.214 56.3767C110.448 56.3767 110.675 56.4127 110.893 56.4843C111.112 56.5559 111.297 56.6493 111.449 56.7645C111.601 56.8797 111.731 57.0261 111.837 57.204Z" fill="#202020"/>
<path d="M114.447 55.1515H114.903V56.4677H115.626V56.8623H114.903V60.0125H114.447V56.8623H113.824V56.4677H114.447V55.1515Z" fill="#202020"/>
<path d="M117.578 56.4677H118.034V60.0125H117.578V56.4677ZM117.805 55.0083C117.908 55.0083 117.997 55.0452 118.071 55.119C118.144 55.1929 118.181 55.2819 118.181 55.3859C118.181 55.4882 118.144 55.5763 118.071 55.6502C117.997 55.724 117.908 55.7609 117.805 55.7609C117.703 55.7609 117.616 55.724 117.542 55.6502C117.468 55.5763 117.431 55.4882 117.431 55.3859C117.431 55.2819 117.468 55.1929 117.542 55.119C117.616 55.0452 117.703 55.0083 117.805 55.0083Z" fill="#202020"/>
<path d="M121.996 56.823C121.616 56.823 121.29 56.9627 121.018 57.2429C120.745 57.5231 120.609 57.8621 120.609 58.2593C120.609 58.516 120.671 58.7548 120.795 58.9764C120.919 59.1979 121.088 59.3691 121.299 59.4892C121.51 59.6102 121.743 59.6703 121.996 59.6703C122.248 59.6703 122.481 59.6102 122.692 59.4892C122.904 59.3691 123.072 59.1979 123.196 58.9764C123.321 58.7548 123.382 58.516 123.382 58.2593C123.382 57.8621 123.246 57.5231 122.972 57.2429C122.698 56.9627 122.373 56.823 121.996 56.823ZM121.997 56.3764C122.543 56.3764 122.997 56.5739 123.356 56.9694C123.682 57.3301 123.846 57.7571 123.846 58.25C123.846 58.7451 123.673 59.1779 123.328 59.5479C122.983 59.9185 122.539 60.1035 121.997 60.1035C121.453 60.1035 121.008 59.9185 120.663 59.5479C120.318 59.1779 120.146 58.7451 120.146 58.25C120.146 57.7589 120.309 57.3332 120.635 56.9729C120.995 56.5752 121.449 56.3764 121.997 56.3764Z" fill="#202020"/>
<path d="M126.025 56.4677H126.481V57.1034C126.664 56.8601 126.867 56.6781 127.088 56.5571C127.31 56.437 127.551 56.3765 127.812 56.3765C128.077 56.3765 128.312 56.4437 128.518 56.5785C128.723 56.7133 128.875 56.8947 128.972 57.1229C129.07 57.3507 129.119 57.7056 129.119 58.1878V60.0125H128.663V58.3217C128.663 57.9134 128.645 57.6407 128.612 57.5037C128.559 57.2693 128.458 57.0927 128.308 56.9744C128.158 56.856 127.962 56.7969 127.72 56.7969C127.445 56.7969 127.197 56.8881 126.979 57.0704C126.76 57.2533 126.616 57.4788 126.547 57.7483C126.503 57.924 126.481 58.2456 126.481 58.7127V60.0125H126.025V56.4677Z" fill="#202020"/>
<path d="M33.0563 7.29847L28.5992 -4.57764e-05C28.5992 -4.57764e-05 24.5529 5.96269 23.8915 9.30636C23.2305 12.6496 24.6779 22.5898 24.6779 22.5898L24.6245 41.1479L25.7573 40.2886L25.7951 22.5191L31.6779 10.2009L33.0563 7.29847Z" fill="white"/>
<path d="M60.863 22.1649C60.863 22.1649 60.1727 23.7227 58.7404 24.4539L56.4553 23.7489L44.996 19.4569L49.4037 34.5059H34.6281C34.6281 34.5059 41.2497 21.2255 40.5883 18.4045C39.9273 15.5835 31.1559 13.6361 31.1559 13.6361L32.7039 10.4263L40.368 13.8064C40.368 13.8064 41.9106 12.8661 43.3429 13.3883C44.7757 13.911 44.8856 14.7468 44.996 15.5826C45.1059 16.4184 60.863 22.1649 60.863 22.1649Z" fill="white"/>
<path d="M58.8392 24.3293V32.1901H59.9413C61.0259 32.1901 61.8129 32.066 62.3011 31.8169C62.7903 31.5682 63.19 31.1497 63.5011 30.5621C63.8118 29.974 63.9671 29.2503 63.9671 28.3909C63.9671 27.0685 63.5968 26.0423 62.8566 25.3128C62.1899 24.6572 61.119 24.3293 59.6444 24.3293H58.8392ZM56.4829 22.0421H59.2941C61.107 22.0421 62.4529 22.2667 63.3342 22.716C64.2146 23.1644 64.9401 23.8943 65.5102 24.9054C66.0808 25.916 66.3657 27.0965 66.3657 28.4461C66.3657 29.406 66.2064 30.2885 65.8872 31.0932C65.5681 31.8979 65.1279 32.5655 64.5658 33.0962C64.0041 33.6273 63.3956 33.9943 62.7413 34.1975C62.0862 34.4008 60.9516 34.5027 59.3368 34.5027H56.4829V22.0421Z" fill="white"/>
<path d="M68.6372 22.0423H75.4431V24.3633H70.9935V26.6163H75.4431V28.8951H70.9935V32.1729H75.4431V34.5024H68.6372V22.0423Z" fill="white"/>
<path d="M77.6635 22.0423H79.9401L85.2749 30.242V22.0423H87.6482V34.5024H85.3653L80.0367 26.3285V34.5024H77.6635V22.0423Z" fill="white"/>
<path d="M89.267 22.0423H96.1575V24.3802H93.8862V34.5024H91.4791V24.3802H89.267V22.0423Z" fill="white"/>
<path d="M102.808 25.3457L101.135 29.6235H104.471L102.808 25.3457ZM101.589 22.0421H103.997L108.791 34.5022H106.325L105.35 31.9356H100.262L99.2479 34.5022H96.7812L101.589 22.0421Z" fill="white"/>
<path d="M110.627 22.0423H113V32.241H116.458V34.5024H110.627V22.0423Z" fill="white"/>
<path d="M57.8809 40.6094V44.8445L60.0289 44.8623C60.8608 44.8623 61.4764 44.7831 61.8756 44.6248C62.2744 44.4669 62.5855 44.2142 62.809 43.8664C63.0328 43.5194 63.1446 43.1311 63.1446 42.7018C63.1446 42.2842 63.0311 41.9043 62.8049 41.5627C62.5788 41.2211 62.2815 40.9764 61.9139 40.8296C61.5453 40.6828 60.9342 40.6094 60.0797 40.6094H57.8809ZM56.6351 39.3898H59.1183C60.5029 39.3898 61.4407 39.4467 61.9326 39.5597C62.6728 39.7292 63.2745 40.0926 63.7379 40.6495C64.2012 41.2064 64.4331 41.8918 64.4331 42.7063C64.4331 43.3846 64.2729 43.9811 63.9542 44.4953C63.6346 45.0104 63.1784 45.3992 62.5851 45.6616C61.9918 45.9245 61.1728 46.0589 60.1273 46.0646L64.6107 51.8503H63.0693L58.5855 46.0646H57.8809V51.8503H56.6351V39.3898Z" fill="#202020"/>
<path d="M67.1121 39.3898H74.2571V40.6094H68.3579V44.5145H74.2059V45.7346H68.3579V50.6307H74.2059V51.8503H67.1121V39.3898Z" fill="#202020"/>
<path d="M77.5203 49.9865C77.8083 49.9865 78.054 50.0884 78.2574 50.2917C78.4608 50.495 78.5627 50.7432 78.5627 51.0368C78.5627 51.325 78.4608 51.5719 78.2574 51.7778C78.054 51.9838 77.8083 52.0874 77.5203 52.0874C77.2323 52.0874 76.9862 51.9838 76.7828 51.7778C76.5794 51.5719 76.4774 51.325 76.4774 51.0368C76.4774 50.7432 76.5794 50.495 76.7828 50.2917C76.9862 50.0884 77.2323 49.9865 77.5203 49.9865ZM77.5203 42.3971C77.8083 42.3971 78.054 42.4985 78.2574 42.7018C78.4608 42.9051 78.5627 43.1538 78.5627 43.4473C78.5627 43.7409 78.4608 43.9896 78.2574 44.1928C78.054 44.3961 77.8083 44.4975 77.5203 44.4975C77.2323 44.4975 76.9862 44.3961 76.7828 44.1928C76.5794 43.9896 76.4774 43.7409 76.4774 43.4473C76.4774 43.1591 76.5794 42.9122 76.7828 42.7063C76.9862 42.4999 77.2323 42.3971 77.5203 42.3971Z" fill="#202020"/>
<path d="M79.9272 49.5291L80.9866 48.8935C81.7325 50.2658 82.5942 50.9521 83.5716 50.9521C83.99 50.9521 84.3826 50.8547 84.7498 50.6599C85.117 50.465 85.397 50.2039 85.5892 49.8761C85.7811 49.5487 85.8772 49.2018 85.8772 48.8343C85.8772 48.4167 85.7361 48.007 85.4535 47.6062C85.0636 47.0529 84.3514 46.3865 83.3175 45.6072C82.2778 44.8221 81.6306 44.255 81.3765 43.9045C80.9358 43.3173 80.7155 42.6817 80.7155 41.9984C80.7155 41.4566 80.8455 40.9625 81.105 40.5163C81.3649 40.0702 81.7312 39.7188 82.2025 39.4617C82.6748 39.205 83.1875 39.0764 83.7412 39.0764C84.3292 39.0764 84.8784 39.2219 85.3894 39.5124C85.9013 39.8037 86.4425 40.3384 87.0131 41.1177L85.9961 41.8886C85.5269 41.2676 85.1272 40.8579 84.7961 40.6604C84.4658 40.4625 84.1058 40.3642 83.7159 40.3642C83.2129 40.3642 82.8016 40.5163 82.4825 40.8215C82.1629 41.1262 82.0036 41.5016 82.0036 41.9477C82.0036 42.2186 82.0601 42.4815 82.1732 42.7359C82.2862 42.9899 82.4927 43.2666 82.7923 43.566C82.9561 43.7239 83.4929 44.1389 84.4026 44.811C85.4815 45.6072 86.2222 46.3158 86.6232 46.9372C87.0242 47.5582 87.225 48.1822 87.225 48.809C87.225 49.7124 86.8813 50.4975 86.195 51.1638C85.5082 51.8302 84.6737 52.1633 83.6905 52.1633C82.9334 52.1633 82.2466 51.9614 81.6306 51.5579C81.0146 51.154 80.4471 50.4779 79.9272 49.5291Z" fill="#202020"/>
<path d="M95.8533 40.2877C94.9311 40.2877 94.0565 40.5279 93.2299 41.0083C92.4039 41.4887 91.7585 42.1359 91.2947 42.9494C90.8305 43.7635 90.5981 44.6709 90.5981 45.6713C90.5981 47.1516 91.1122 48.402 92.139 49.4219C93.1663 50.4423 94.4045 50.9525 95.8533 50.9525C96.8214 50.9525 97.7169 50.7177 98.5403 50.2488C99.3637 49.7796 100.006 49.1381 100.467 48.3241C100.928 47.5106 101.159 46.6063 101.159 45.6117C101.159 44.6224 100.928 43.7279 100.467 42.9285C100.006 42.1288 99.3566 41.4887 98.519 41.0083C97.6813 40.5279 96.7929 40.2877 95.8533 40.2877ZM95.7981 39.0764C97.6866 39.0764 99.2672 39.7059 100.539 40.9651C101.812 42.2244 102.447 43.775 102.447 45.6161C102.447 47.4398 101.813 48.9874 100.543 50.2577C99.2743 51.5286 97.7262 52.1633 95.8996 52.1633C94.0511 52.1633 92.4902 51.5308 91.2181 50.2662C89.9465 49.0011 89.31 47.4705 89.31 45.6748C89.31 44.4778 89.5998 43.3685 90.1793 42.3463C90.7592 41.3241 91.5488 40.5234 92.5498 39.9447C93.5504 39.366 94.6333 39.0764 95.7981 39.0764Z" fill="#202020"/>
<path d="M104.99 39.3898H106.236V46.9117C106.236 47.8039 106.253 48.3604 106.286 48.5806C106.349 49.0721 106.493 49.4827 106.719 49.8132C106.945 50.1437 107.292 50.4203 107.762 50.6432C108.23 50.8665 108.702 50.9777 109.176 50.9777C109.589 50.9777 109.985 50.8901 110.363 50.7153C110.742 50.54 111.058 50.2971 111.312 49.9867C111.567 49.6762 111.753 49.3003 111.872 48.8599C111.957 48.5437 111.999 47.8942 111.999 46.9117V39.3898H113.245V46.9117C113.245 48.0241 113.136 48.924 112.918 49.6099C112.701 50.2962 112.266 50.8927 111.613 51.4012C110.961 51.9096 110.171 52.1636 109.245 52.1636C108.239 52.1636 107.377 51.9238 106.659 51.4439C105.942 50.9639 105.462 50.3283 105.219 49.5374C105.066 49.0521 104.99 48.1767 104.99 46.9117V39.3898Z" fill="#202020"/>
<path d="M117.627 40.6094V44.8445L119.775 44.8623C120.607 44.8623 121.222 44.7831 121.621 44.6248C122.02 44.4669 122.331 44.2142 122.555 43.8664C122.779 43.5194 122.89 43.1311 122.89 42.7018C122.89 42.2842 122.777 41.9043 122.551 41.5627C122.325 41.2211 122.028 40.9764 121.66 40.8296C121.292 40.6828 120.68 40.6094 119.826 40.6094H117.627ZM116.381 39.3898H118.865C120.249 39.3898 121.187 39.4467 121.679 39.5597C122.419 39.7292 123.02 40.0926 123.484 40.6495C123.947 41.2064 124.179 41.8918 124.179 42.7063C124.179 43.3846 124.019 43.9811 123.7 44.4953C123.381 45.0104 122.924 45.3992 122.331 45.6616C121.738 45.9245 120.919 46.0589 119.873 46.0646L124.357 51.8503H122.816L118.331 46.0646H117.627V51.8503H116.381V39.3898Z" fill="#202020"/>
<path d="M138.461 41.7024L137.478 42.4559C136.935 41.75 136.284 41.2154 135.524 40.8511C134.764 40.4872 133.929 40.3044 133.019 40.3044C132.025 40.3044 131.104 40.5437 130.256 41.0205C129.409 41.4978 128.752 42.1383 128.286 42.9435C127.82 43.7481 127.586 44.6529 127.586 45.6582C127.586 47.1772 128.108 48.4449 129.15 49.4613C130.193 50.4782 131.508 50.9862 133.096 50.9862C134.842 50.9862 136.302 50.3029 137.478 48.9364L138.461 49.6815C137.839 50.4724 137.064 51.0836 136.134 51.5159C135.205 51.9474 134.167 52.1636 133.019 52.1636C130.838 52.1636 129.118 51.4381 127.858 49.9867C126.801 48.7612 126.272 47.2817 126.272 45.5483C126.272 43.7241 126.913 42.1895 128.193 40.9445C129.473 39.699 131.075 39.0767 133.003 39.0767C134.167 39.0767 135.217 39.3067 136.156 39.7666C137.094 40.2274 137.862 40.8724 138.461 41.7024Z" fill="#202020"/>
<path d="M140.97 39.3898H148.115V40.6094H142.216V44.5145H148.065V45.7346H142.216V50.6307H148.065V51.8503H140.97V39.3898Z" fill="#202020"/>
<path d="M35.0609 54.7549C35.0609 54.7549 36.0116 52.3925 36.9508 52.413C38.4067 52.445 40.5302 58.4598 41.7653 58.4055C43.0004 58.3512 46.0564 51.3997 46.5118 46.0784C46.9675 40.7575 46.1619 38.6175 44.4599 38.2203C42.7583 37.8231 39.5572 40.9577 35.8523 41.0293C32.1474 41.1014 30.6968 39.3279 27.9608 39.8332C25.649 40.2598 27.019 45.9285 27.9208 48.6414C28.7575 51.1582 33.3625 53.4263 35.0765 52.3396C36.7905 51.2533 38.2113 53.4645 38.2113 53.4645C38.2113 53.4645 36.9339 52.5153 36.3788 52.8614C35.7459 53.2559 34.6132 55.8474 34.6132 55.8474C34.6132 55.8474 33.1435 61.8693 30.8575 62.0819C28.5021 62.3008 24.9022 56.9399 23.7196 50.6137C22.537 44.2871 22.5944 37.3258 26.2423 37.0277C29.8903 36.7302 31.8607 40.1984 35.8047 39.6619C39.7486 39.1259 41.711 36.4784 45.7689 36.3436C49.8272 36.2084 49.8971 41.9678 49.6341 45.3427C49.371 48.7175 44.2138 60.9334 41.7408 61.3613C39.2679 61.7897 37.5294 53.4659 36.8609 53.489C35.7864 53.5263 35.0609 54.7549 35.0609 54.7549Z" fill="#202020"/>
<path d="M24.6561 37.77L24.6428 34.506H25.8147L25.7631 37.1117L24.6561 37.77Z" fill="#202020"/>
</g>
</g>
<defs>
<clipPath id="clip0_1_234">
<rect width="164.238" height="64.7534" fill="white"/>
</clipPath>
</defs>
</svg>
