<svg aria-hidden="true" xmlns="http://www.w3.org/2000/svg" xmlns:xlink="http://www.w3.org/1999/xlink"><symbol viewBox="0 0 8 16" fill="none" id="icon-arrow-next" xmlns="http://www.w3.org/2000/svg">
<path d="M8.00427 8.44242C8.00539 8.63889 7.97189 8.83365 7.90568 9.01554C7.83947 9.19743 7.74186 9.36287 7.61845 9.50237L2.29207 15.4739C2.16791 15.6131 2.02049 15.7235 1.85821 15.7989C1.69594 15.8742 1.52199 15.913 1.34629 15.913C1.1706 15.913 0.996609 15.8742 0.83425 15.7989C0.67189 15.7235 0.524343 15.6131 0.400033 15.4739C0.275723 15.3347 0.177085 15.1695 0.10975 14.9876C0.0424146 14.8057 0.00770254 14.6108 0.00759365 14.414C0.00748476 14.2171 0.0419812 14.0222 0.109115 13.8403C0.176249 13.6585 0.274705 13.4932 0.398861 13.354L4.80646 8.44241L0.566633 3.51588C0.430264 3.37855 0.320635 3.21119 0.244602 3.02426C0.168569 2.83733 0.127769 2.63486 0.124752 2.42951C0.121734 2.22415 0.156564 2.02034 0.227066 1.83081C0.297567 1.64128 0.402223 1.47011 0.534487 1.32801C0.66675 1.18591 0.823776 1.07593 0.995745 1.00495C1.16771 0.933974 1.35092 0.903527 1.53392 0.915513C1.71692 0.927498 1.89576 0.981658 2.05927 1.07461C2.22278 1.16755 2.36743 1.29729 2.48418 1.4557L7.63063 7.42725C7.8657 7.70026 7.99929 8.06322 8.00427 8.44242Z" fill="currentColor"/>
</symbol><symbol viewBox="0 0 12 11" fill="none" id="icon-arrow-next-line" xmlns="http://www.w3.org/2000/svg">
<path d="M11 5.50008H1M11 5.50008L6.83333 9.66675M11 5.50008L6.83333 1.33342" stroke="currentColor" stroke-width="1.66667" stroke-linecap="round" stroke-linejoin="round"/>
</symbol><symbol viewBox="0 0 8 16" fill="none" id="icon-arrow-prev" xmlns="http://www.w3.org/2000/svg">
<path d="M0.00415633 8.44254C0.00303389 8.63901 0.036537 8.83378 0.102744 9.01567C0.16895 9.19756 0.266558 9.36299 0.389972 9.50249L5.71635 15.474C5.84051 15.6132 5.98793 15.7236 6.15021 15.799C6.31249 15.8743 6.48644 15.9131 6.66213 15.9131C6.83782 15.9131 7.01181 15.8743 7.17417 15.799C7.33653 15.7236 7.48408 15.6132 7.60839 15.474C7.7327 15.3348 7.83134 15.1696 7.89867 14.9877C7.96601 14.8059 8.00072 14.6109 8.00083 14.4141C8.00094 14.2172 7.96644 14.0223 7.89931 13.8404C7.83217 13.6586 7.73372 13.4933 7.60956 13.3541L3.20197 8.44254L7.44179 3.516C7.57816 3.37867 7.68779 3.21131 7.76382 3.02438C7.83985 2.83745 7.88065 2.63498 7.88367 2.42963C7.88669 2.22428 7.85186 2.02046 7.78136 1.83093C7.71086 1.6414 7.6062 1.47023 7.47394 1.32813C7.34167 1.18603 7.18465 1.07605 7.01268 1.00507C6.84071 0.934096 6.6575 0.903649 6.4745 0.915635C6.29151 0.92762 6.11266 0.98178 5.94915 1.07473C5.78565 1.16768 5.64099 1.29741 5.52424 1.45582L0.377795 7.42737C0.142719 7.70038 0.00913065 8.06334 0.00415633 8.44254Z" fill="currentColor"/>
</symbol><symbol viewBox="0 0 12 11" fill="none" id="icon-arrow-prev-line" xmlns="http://www.w3.org/2000/svg">
<path d="M1 5.50008H11M1 5.50008L5.16667 9.66675M1 5.50008L5.16667 1.33342" stroke="currentColor" stroke-width="1.66667" stroke-linecap="round" stroke-linejoin="round"/>
</symbol><symbol viewBox="0 0 12 11" fill="none" id="icon-arrows-prev" xmlns="http://www.w3.org/2000/svg">
<path d="M1 5.50008H11M1 5.50008L5.16667 9.66675M1 5.50008L5.16667 1.33342" stroke="currentColor" stroke-width="1.66667" stroke-linecap="round" stroke-linejoin="round"/>
</symbol><symbol viewBox="0 0 42 42" fill="none" id="icon-close" xmlns="http://www.w3.org/2000/svg">
<path d="M42 2.115L23.115 21L42 39.885L39.885 42L21 23.115L2.115 42L0 39.885L18.885 21L0 2.115L2.115 0L21 18.885L39.885 0L42 2.115Z" fill="currentColor"/>
</symbol><symbol viewBox="0 0 27 21" fill="none" id="icon-download" xmlns="http://www.w3.org/2000/svg">
<path fill-rule="evenodd" clip-rule="evenodd" d="M0 20.0455C0 19.7924 0.100559 19.5496 0.279555 19.3706C0.458551 19.1916 0.701322 19.0911 0.954461 19.0911H25.7704C26.0236 19.0911 26.2663 19.1916 26.4453 19.3706C26.6243 19.5496 26.7249 19.7924 26.7249 20.0455C26.7249 20.2987 26.6243 20.5414 26.4453 20.7204C26.2663 20.8994 26.0236 21 25.7704 21H0.954461C0.701322 21 0.458551 20.8994 0.279555 20.7204C0.100559 20.5414 0 20.2987 0 20.0455Z" fill="currentColor"/>
<path d="M14.0372 0.279554C13.8582 0.100558 13.6154 0 13.3623 0C13.1091 0 12.8663 0.100558 12.6874 0.279554C12.5084 0.45855 12.4078 0.701322 12.4078 0.954461V12.0128L8.31125 7.91439C8.13203 7.73517 7.88895 7.63448 7.63549 7.63448C7.38203 7.63448 7.13896 7.73517 6.95973 7.91439C6.78051 8.09361 6.67983 8.33669 6.67983 8.59015C6.67983 8.84361 6.78051 9.08668 6.95973 9.26591L12.6865 14.9927C12.7752 15.0816 12.8805 15.1521 12.9964 15.2002C13.1124 15.2483 13.2367 15.2731 13.3623 15.2731C13.4878 15.2731 13.6121 15.2483 13.7281 15.2002C13.844 15.1521 13.9494 15.0816 14.038 14.9927L19.7648 9.26591C19.8535 9.17716 19.9239 9.07181 19.9719 8.95586C20.02 8.83992 20.0447 8.71565 20.0447 8.59015C20.0447 8.46465 20.02 8.34038 19.9719 8.22443C19.9239 8.10848 19.8535 8.00313 19.7648 7.91439C19.676 7.82565 19.5707 7.75525 19.4547 7.70723C19.3388 7.6592 19.2145 7.63448 19.089 7.63448C18.9635 7.63448 18.8392 7.6592 18.7233 7.70723C18.6074 7.75525 18.502 7.82565 18.4133 7.91439L14.3167 12.0128V0.954461C14.3167 0.701322 14.2162 0.45855 14.0372 0.279554Z" fill="currentColor"/>
</symbol><symbol viewBox="0 0 17 17" fill="none" id="icon-gis" xmlns="http://www.w3.org/2000/svg">
<path d="M16.6094 16.3779H0V14.9082L16.6094 12.3486V16.3779Z" fill="currentColor"/>
<path d="M0 3.13672L5.09863 3.92285L5.02832 3.99023C4.22121 4.79009 3.76283 5.86795 3.7627 6.98242C3.7627 7.86869 3.96602 8.75333 4.38574 9.64062L4.56055 10.0098H4.99902C5.84586 10.0147 6.40658 10.2698 6.77246 10.7188C7.0628 11.0741 7.22786 11.5523 7.28027 12.0703L7.29004 12.1602L7.29492 12.2119C7.32112 12.4858 7.33724 12.7125 7.34375 12.8887L7.34473 12.9209L7.3457 12.9424L7.34668 12.9824L7.34961 13.1279L0 14.2607V3.13672Z" fill="currentColor"/>
<path d="M16.6094 5.69531V11.7012L9.2666 12.833C9.27413 12.6743 9.28891 12.4791 9.31055 12.249L9.31738 12.1787L9.32129 12.1426L9.3291 12.0605L9.33105 12.0449C9.38747 11.5298 9.55533 11.0569 9.8457 10.707C10.2161 10.261 10.7823 10.0098 11.6357 10.0098H12.0479L12.2227 9.64062L12.2354 9.61328C12.6469 8.73498 12.8457 7.8597 12.8457 6.98242C12.8446 6.30616 12.6781 5.64023 12.3604 5.04102L16.6094 5.69531Z" fill="currentColor"/>
<path d="M16.6094 5.04785L11.8799 4.31934C11.7857 4.20525 11.6857 4.09542 11.5801 3.99023C10.7408 3.15878 9.58765 2.68468 8.30469 2.68457C7.37823 2.68457 6.51948 2.93222 5.79785 3.38281L0 2.48926V0H16.6094V5.04785Z" fill="currentColor"/>
<path fill-rule="evenodd" clip-rule="evenodd" d="M8.30489 3.32613C10.6239 3.32613 12.1977 5.08591 12.1977 6.98453C12.1977 7.74684 12.029 8.53979 11.6355 9.37153C9.35423 9.37153 8.79104 10.9824 8.68437 11.9968L8.67735 12.0638C8.64157 12.4261 8.62043 12.7164 8.61495 12.9347L7.99688 13.03V13.0101C7.98832 12.6876 7.96615 12.3656 7.93046 12.0449L7.929 12.0271C7.83038 11.0151 7.27926 9.37153 4.97487 9.37153C4.58083 8.53979 4.41219 7.74684 4.41219 6.98453C4.41219 5.08591 5.98638 3.32613 8.30489 3.32613Z" fill="currentColor"/>
</symbol><symbol viewBox="0 0 24 28" fill="none" id="icon-play" xmlns="http://www.w3.org/2000/svg">
<path d="M3.60716 2.68692C2.27391 1.93334 0.623047 2.89656 0.623047 4.42804V23.5724C0.623047 25.1039 2.27391 26.0671 3.60716 25.3136L20.5426 15.7414C21.8971 14.9758 21.8971 13.0247 20.5426 12.2591L3.60716 2.68692Z" fill="currentColor"/>
<path d="M3.60716 2.68692C2.27391 1.93334 0.623047 2.89656 0.623047 4.42804V23.5724C0.623047 25.1039 2.27391 26.0671 3.60716 25.3136L20.5426 15.7414C21.8971 14.9758 21.8971 13.0247 20.5426 12.2591L3.60716 2.68692Z" fill="currentColor"/>
<defs>
<linearGradient id="ipaint0_linear_2011_4" x1="0.623047" y1="2.00024" x2="20.623" y2="34.0002" gradientUnits="userSpaceOnUse">
<stop stop-color="white"/>
<stop offset="1" stop-color="white" stop-opacity="0"/>
</linearGradient>
<linearGradient id="ipaint1_linear_2011_4" x1="-11.377" y1="-10.9998" x2="12.623" y2="19.5002" gradientUnits="userSpaceOnUse">
<stop stop-color="white" stop-opacity="0"/>
<stop offset="1" stop-color="white"/>
</linearGradient>
</defs>
</symbol><symbol viewBox="0 0 20 21" fill="none" id="icon-plus" xmlns="http://www.w3.org/2000/svg">
<path d="M3.33331 10.4999H16.6666M9.99998 3.83325V17.1666" stroke="currentColor" stroke-width="1.58333" stroke-linecap="round" stroke-linejoin="round"/>
</symbol><symbol viewBox="0 0 31 32" fill="none" id="icon-tel" xmlns="http://www.w3.org/2000/svg">
<path d="M9.55972 16.0378C10.8143 18.6287 12.9094 20.7184 15.5035 21.9663C15.6948 22.057 15.9065 22.0962 16.1176 22.0801C16.3287 22.0641 16.532 21.9934 16.7075 21.8749L20.5176 19.3297C20.6859 19.2156 20.8805 19.1459 21.083 19.1273C21.2856 19.1086 21.4895 19.1416 21.6759 19.2231L28.8084 22.2864C29.0522 22.3879 29.2559 22.5666 29.388 22.7952C29.5202 23.0238 29.5736 23.2895 29.54 23.5514C29.3139 25.3158 28.4527 26.9374 27.1174 28.1128C25.7822 29.2881 24.0644 29.9367 22.2855 29.9371C16.7884 29.9371 11.5164 27.7534 7.62928 23.8663C3.74221 19.9792 1.55847 14.7072 1.55847 9.21008C1.55887 7.4312 2.20743 5.71343 3.38279 4.37817C4.55816 3.04292 6.17978 2.18168 7.94423 1.95561C8.20612 1.92197 8.4718 1.97536 8.70037 2.10754C8.92895 2.23973 9.10773 2.44339 9.20918 2.68716L12.2725 9.83494C12.3522 10.0184 12.3855 10.2185 12.3696 10.4179C12.3536 10.6172 12.2889 10.8096 12.1811 10.978L9.63592 14.849C9.52261 15.0241 9.4561 15.2254 9.44276 15.4335C9.42942 15.6416 9.46969 15.8497 9.55972 16.0378Z" stroke="currentColor" stroke-width="2.44591" stroke-linecap="round" stroke-linejoin="round"/>
</symbol><symbol viewBox="0 0 16 13" fill="none" id="icon-tg" xmlns="http://www.w3.org/2000/svg">
<path d="M14.3712 0.380529L1.43208 5.37013C0.549024 5.72485 0.554131 6.21744 1.27003 6.43715L4.59207 7.47341L12.2782 2.62392C12.6417 2.40281 12.9737 2.52178 12.7008 2.76404L6.47346 8.38419L6.24429 11.8091C6.58002 11.8091 6.7282 11.6552 6.91645 11.4734L8.53 9.90435L11.8864 12.3834C12.5052 12.7243 12.9497 12.5491 13.1037 11.8105L15.3068 1.42709C15.5324 0.522896 14.9616 0.113464 14.3712 0.380529Z" fill="currentColor"/>
</symbol><symbol viewBox="0 0 16 16" id="icon-wh" xmlns="http://www.w3.org/2000/svg"><path fill="currentColor" d="M13.601 2.326A7.85 7.85 0 0 0 7.994 0C3.627 0 .068 3.558.064 7.926c0 1.399.366 2.76 1.057 3.965L0 16l4.204-1.102a7.9 7.9 0 0 0 3.79.965h.004c4.368 0 7.926-3.558 7.93-7.93A7.9 7.9 0 0 0 13.6 2.326zM7.994 14.521a6.6 6.6 0 0 1-3.356-.92l-.24-.144l-2.494.654l.666-2.433l-.156-.251a6.56 6.56 0 0 1-1.007-3.505c0-3.626 2.957-6.584 6.591-6.584a6.56 6.56 0 0 1 4.66 1.931a6.56 6.56 0 0 1 1.928 4.66c-.004 3.639-2.961 6.592-6.592 6.592m3.615-4.934c-.197-.099-1.17-.578-1.353-.646c-.182-.065-.315-.099-.445.099c-.133.197-.513.646-.627.775c-.114.133-.232.148-.43.05c-.197-.1-.836-.308-1.592-.985c-.59-.525-.985-1.175-1.103-1.372c-.114-.198-.011-.304.088-.403c.087-.088.197-.232.296-.346c.1-.114.133-.198.198-.33c.065-.134.034-.248-.015-.347c-.05-.099-.445-1.076-.612-1.47c-.16-.389-.323-.335-.445-.34c-.114-.007-.247-.007-.38-.007a.73.73 0 0 0-.529.247c-.182.198-.691.677-.691 1.654s.71 1.916.81 2.049c.098.133 1.394 2.132 3.383 2.992c.47.205.84.326 1.129.418c.475.152.904.129 1.246.08c.38-.058 1.171-.48 1.338-.943c.164-.464.164-.86.114-.943c-.049-.084-.182-.133-.38-.232"/></symbol><symbol viewBox="0 0 12 17" fill="none" id="icon-ya" xmlns="http://www.w3.org/2000/svg">
<path d="M11.2083 16.8259H8.34803V2.76086H7.07147C4.73125 2.76086 3.50205 3.93109 3.50205 5.6628C3.50205 7.62862 4.35305 8.54139 6.1023 9.71151L7.54428 10.671L3.38376 16.8259H0.28714L4.0221 11.3263C1.87086 9.80511 0.665338 8.33074 0.665338 5.82665C0.665338 2.69072 2.86371 0.561035 7.04791 0.561035H11.2083V16.8259Z" fill="currentColor"/>
</symbol><symbol viewBox="0 0 18 14" fill="none" id="icon-yt" xmlns="http://www.w3.org/2000/svg">
<path d="M15.6335 2.83615C15.5682 2.58122 15.3838 2.38878 15.1725 2.32945C14.7971 2.22476 12.9747 1.98455 9.12246 1.98455C5.27026 1.98455 3.44817 2.22484 3.07125 2.32971C2.86203 2.38792 2.67756 2.58027 2.61147 2.83615C2.51833 3.19945 2.2741 4.72047 2.2741 7.12082C2.2741 9.52118 2.51833 11.0422 2.61173 11.4065C2.6767 11.6605 2.86118 11.8529 3.07151 11.9119C3.44817 12.0168 5.27026 12.2571 9.12246 12.2571C12.9747 12.2571 14.7971 12.0169 15.1736 11.9119C15.3829 11.8537 15.5674 11.6614 15.6335 11.4055C15.7266 11.0422 15.9708 9.51775 15.9708 7.12082C15.9708 4.7239 15.7266 3.19945 15.6335 2.83615ZM17.2919 2.41103C17.6829 3.93634 17.6829 7.12082 17.6829 7.12082C17.6829 7.12082 17.6829 10.3053 17.2919 11.8306C17.074 12.6742 16.4382 13.3373 15.6323 13.5614C14.1698 13.9692 9.12246 13.9692 9.12246 13.9692C9.12246 13.9692 4.07813 13.9692 2.61258 13.5614C1.80371 13.3342 1.16792 12.6711 0.952967 11.8306C0.562011 10.3053 0.562012 7.12082 0.562012 7.12082C0.562012 7.12082 0.562011 3.93634 0.952967 2.41103C1.17092 1.5674 1.80662 0.904394 2.61258 0.680281C4.07813 0.272461 9.12246 0.272461 9.12246 0.272461C9.12246 0.272461 14.1698 0.272461 15.6323 0.680281C16.4412 0.907476 17.077 1.57057 17.2919 2.41103ZM7.41037 10.117V4.12467L12.5466 7.12082L7.41037 10.117Z" fill="currentColor"/>
</symbol></svg>